<svg width="69" height="69" viewBox="0 0 69 69" fill="none" xmlns="http://www.w3.org/2000/svg">
<path d="M28.9238 47.303V49.9487C29.47 49.2962 30.1166 48.7351 30.8392 48.2865V46.1257C30.1572 46.4423 29.5145 46.8374 28.9238 47.303ZM28.9238 47.303V49.9487C29.47 49.2962 30.1166 48.7351 30.8392 48.2865V46.1257C30.1572 46.4423 29.5145 46.8374 28.9238 47.303ZM29.0829 60.2543V62.8376C29.6374 63.2489 30.2329 63.6017 30.8599 63.8903V61.7225C30.2009 61.3202 29.6025 60.8258 29.0829 60.2543ZM28.9238 47.303V49.9487C29.47 49.2962 30.1166 48.7351 30.8392 48.2865V46.1257C30.1572 46.4423 29.5145 46.8374 28.9238 47.303ZM29.0829 60.2543V62.8376C29.6374 63.2489 30.2329 63.6017 30.8599 63.8903V61.7225C30.2009 61.3202 29.6025 60.8258 29.0829 60.2543ZM28.9238 47.303V49.9487C29.47 49.2962 30.1166 48.7351 30.8392 48.2865V46.1257C30.1572 46.4423 29.5145 46.8374 28.9238 47.303ZM29.0829 60.2543V62.8376C29.6374 63.2489 30.2329 63.6017 30.8599 63.8903V61.7225C30.2009 61.3202 29.6025 60.8258 29.0829 60.2543ZM28.9238 47.303V49.9487C29.47 49.2962 30.1166 48.7351 30.8392 48.2865V46.1257C30.1572 46.4423 29.5145 46.8374 28.9238 47.303ZM29.0829 60.2543V62.8376C29.6374 63.2489 30.2329 63.6017 30.8599 63.8903V61.7225C30.2009 61.3202 29.6025 60.8258 29.0829 60.2543ZM64.2087 5.01202e-06H33.7018C32.4351 0.00183705 31.2209 0.50664 30.3253 1.40374C29.4296 2.30084 28.9257 3.51703 28.9238 4.78572V34.4834H30.8599V4.78572C30.8653 4.03181 31.1662 3.31022 31.6978 2.77646C32.2294 2.24271 32.9491 1.93955 33.7018 1.9323H64.2087C64.9673 1.93413 65.6944 2.2368 66.2308 2.77412C66.7673 3.31144 67.0695 4.0397 67.0713 4.79958V64.195C67.0695 64.9549 66.7673 65.6831 66.2308 66.2205C65.6944 66.7578 64.9673 67.0604 64.2087 67.0623H29.8919C30.1627 67.4256 30.4894 67.7436 30.8599 68.0042C31.6817 68.633 32.6883 68.9715 33.7225 68.9668H64.2294C65.4948 68.9632 66.7073 68.4576 67.6015 67.5607C68.4956 66.6638 68.9986 65.4486 69.0005 64.1812V4.78572C68.9995 4.15634 68.8749 3.53331 68.6336 2.95219C68.3923 2.37107 68.0391 1.84323 67.5941 1.39883C67.1492 0.95444 66.6212 0.602179 66.0403 0.362167C65.4594 0.122155 64.837 -0.000905151 64.2087 5.01202e-06ZM30.8599 61.7225C30.2082 61.3186 29.6169 60.8243 29.1036 60.2543V62.8376C29.6516 63.2477 30.2401 63.6004 30.8599 63.8903V61.7225ZM30.8599 48.2865V46.1257C30.178 46.4423 29.5352 46.8374 28.9446 47.303V49.9487C29.4908 49.2962 30.1373 48.7351 30.8599 48.2865ZM29.1036 60.2543V62.8376C29.6516 63.2477 30.2401 63.6004 30.8599 63.8903V61.7225C30.2009 61.3202 29.6025 60.8258 29.0829 60.2543H29.1036ZM28.9446 47.303V49.9487C29.4908 49.2962 30.1373 48.7351 30.8599 48.2865V46.1257C30.1708 46.4409 29.521 46.8361 28.9238 47.303H28.9446ZM29.1036 60.2543V62.8376C29.6516 63.2477 30.2401 63.6004 30.8599 63.8903V61.7225C30.2009 61.3202 29.6025 60.8258 29.0829 60.2543H29.1036ZM28.9446 47.303V49.9487C29.4908 49.2962 30.1373 48.7351 30.8599 48.2865V46.1257C30.1708 46.4409 29.521 46.8361 28.9238 47.303H28.9446ZM29.1036 60.2543V62.8376C29.6516 63.2477 30.2401 63.6004 30.8599 63.8903V61.7225C30.2009 61.3202 29.6025 60.8258 29.0829 60.2543H29.1036ZM28.9446 47.303V49.9487C29.4908 49.2962 30.1373 48.7351 30.8599 48.2865V46.1257C30.1708 46.4409 29.521 46.8361 28.9238 47.303H28.9446ZM29.1036 60.2543V55.4062C29.1043 55.0651 29.0506 54.7261 28.9446 54.402V64.2019C28.9446 64.6088 28.9981 65.0141 29.1036 65.407V62.8583C29.6525 63.2612 30.241 63.607 30.8599 63.8903V61.7225C30.2009 61.3202 29.6025 60.8258 29.0829 60.2543H29.1036ZM28.9446 47.303V49.9487C29.4908 49.2962 30.1373 48.7351 30.8599 48.2865V46.1257C30.1708 46.4409 29.521 46.8361 28.9238 47.303H28.9446ZM28.9446 39.8024V41.7139H30.8599V39.8024H28.9446Z" fill="#224086"/>
<path d="M64.8656 24.9951C64.8656 25.2485 64.7651 25.4917 64.5861 25.6709C64.4072 25.8501 64.1645 25.9508 63.9114 25.9508H33.9991C33.7461 25.9508 33.5033 25.8501 33.3244 25.6709C33.1455 25.4917 33.0449 25.2485 33.0449 24.9951C33.0449 24.7416 33.1455 24.4985 33.3244 24.3193C33.5033 24.14 33.7461 24.0393 33.9991 24.0393H63.9114C64.1645 24.0393 64.4072 24.14 64.5861 24.3193C64.7651 24.4985 64.8656 24.7416 64.8656 24.9951Z" fill="#329A6B"/>
<path d="M64.8655 29.8986C64.8655 30.1521 64.7649 30.3952 64.586 30.5745C64.407 30.7537 64.1643 30.8544 63.9113 30.8544H56.6925C56.4394 30.8544 56.1967 30.7537 56.0178 30.5745C55.8388 30.3952 55.7383 30.1521 55.7383 29.8986C55.7383 29.6451 55.8388 29.402 56.0178 29.2228C56.1967 29.0436 56.4394 28.9429 56.6925 28.9429H63.9113C64.1643 28.9429 64.407 29.0436 64.586 29.2228C64.7649 29.402 64.8655 29.6451 64.8655 29.8986Z" fill="#224086"/>
<path d="M44.3837 34.726C44.09 34.5697 43.7621 34.4889 43.4295 34.4906H26.4405C26.1079 34.4889 25.7801 34.5697 25.4863 34.726C26.4697 33.9454 27.6889 33.523 28.9436 33.5279H40.9541C42.1994 33.5292 43.4078 33.9514 44.3837 34.726Z" fill="#224086"/>
<path d="M24.3391 56.1609C24.1496 56.0772 23.9446 56.0347 23.7375 56.0362C23.6187 56.0356 23.5003 56.0495 23.3849 56.0778V59.0974C23.5003 59.1256 23.6187 59.1396 23.7375 59.1389C23.9446 59.1404 24.1496 59.0979 24.3391 59.0143C24.6208 58.8973 24.8615 58.6994 25.0308 58.4454C25.2002 58.1915 25.2906 57.893 25.2906 57.5876C25.2906 57.2822 25.2002 56.9837 25.0308 56.7297C24.8615 56.4758 24.6208 56.2778 24.3391 56.1609ZM45.3109 35.6606C45.4593 35.9496 45.5353 36.2705 45.5321 36.5956V39.8022H24.3391V36.5956C24.3389 36.2656 24.4171 35.9404 24.5673 35.6467C23.8018 36.6224 23.3854 37.8272 23.3849 39.0681V54.0485H25.8326C26.1001 54.0472 26.3617 54.1264 26.5836 54.2759C26.8055 54.4253 26.9775 54.638 27.0773 54.8865V55.0043C27.0778 55.4194 27.1101 55.8338 27.1741 56.244V65.7115C27.1772 66.0215 27.0728 66.3229 26.8785 66.5642C26.6843 66.8055 26.4123 66.9717 26.1092 67.0343C25.9016 67.0034 25.7006 66.9378 25.5146 66.8404C25.6143 66.9198 25.7181 66.9938 25.8257 67.062C25.9658 67.1601 26.1112 67.2503 26.2613 67.3321C26.8557 67.6653 27.5082 67.8815 28.1836 67.9693C28.4288 68.0029 28.676 68.0191 28.9234 68.0178H40.9547C42.0598 68.0187 43.1394 67.6856 44.0524 67.062C44.16 66.9938 44.2639 66.9198 44.3636 66.8404C44.075 66.9891 43.7546 67.0652 43.4301 67.062H28.7852C28.9764 66.6424 29.0754 66.1866 29.0756 65.7254V62.8512C29.6329 63.2581 30.2307 63.6063 30.8595 63.8901C32.661 64.7172 34.6713 64.9748 36.6226 64.6285C38.574 64.2823 40.3736 63.3487 41.7818 61.9521C43.19 60.5555 44.1399 58.7622 44.5048 56.8113C44.8698 54.8603 44.6325 52.8442 43.8246 51.0317C43.0167 49.2192 41.6765 47.6964 39.9827 46.6661C38.2888 45.6358 36.3217 45.147 34.3435 45.2648C32.3653 45.3826 30.4699 46.1014 28.9098 47.3254C27.3498 48.5495 26.1992 50.2206 25.6114 52.1162H24.3391V41.7276H45.5321V64.9566C45.5353 65.2816 45.4593 65.6025 45.3109 65.8916C46.0725 64.9169 46.4863 63.7149 46.4863 62.4772V39.0681C46.4847 37.8327 46.071 36.6334 45.3109 35.6606ZM28.9234 49.9485C29.4697 49.296 30.1162 48.7349 30.8388 48.2863C32.0305 47.5563 33.3948 47.1576 34.7915 47.1311C36.1881 47.1046 37.5665 47.4513 38.785 48.1355C40.0034 48.8197 41.0179 49.8167 41.7239 51.024C42.43 52.2312 42.8022 53.6051 42.8022 55.0043C42.8022 56.4034 42.43 57.7773 41.7239 58.9846C41.0179 60.1918 40.0034 61.1889 38.785 61.8731C37.5665 62.5573 36.1881 62.904 34.7915 62.8775C33.3948 62.851 32.0305 62.4522 30.8388 61.7223C30.1871 61.3184 29.5958 60.824 29.0825 60.254V55.406C29.0831 55.0649 29.0294 54.7259 28.9234 54.4017C28.6729 53.6414 28.1542 52.9988 27.4645 52.5941C27.7685 51.623 28.2647 50.7233 28.9234 49.9485ZM25.2864 63.5091C25.2872 63.2032 25.1977 62.9039 25.0291 62.6488C24.8606 62.3938 24.6205 62.1943 24.3391 62.0755C24.1482 61.9974 23.9438 61.9574 23.7375 61.9577C23.6187 61.9571 23.5003 61.971 23.3849 61.9993V62.4633C23.3761 63.7185 23.7929 64.9394 24.5673 65.9262C24.4171 65.6326 24.3389 65.3073 24.3391 64.9774C24.626 64.8564 24.8699 64.6515 25.0389 64.3896C25.2079 64.1277 25.2941 63.8208 25.2864 63.5091Z" fill="#224086"/>
<path d="M23.7375 56.0365C23.6187 56.0359 23.5003 56.0498 23.3849 56.0781C23.188 56.1245 23.0022 56.2097 22.8384 56.3286C22.6746 56.4474 22.536 56.5977 22.4307 56.7707V58.4051C22.6458 58.7524 22.9884 59.0011 23.3849 59.0977C23.5003 59.126 23.6187 59.1399 23.7375 59.1393C23.9446 59.1407 24.1496 59.0983 24.3391 59.0146V56.1612C24.1496 56.0776 23.9446 56.0351 23.7375 56.0365ZM43.4301 32.572H26.4411C25.3768 32.5739 24.3568 32.9986 23.6049 33.7531C22.853 34.5075 22.4307 35.5299 22.4307 36.5959V54.0488H24.3391V36.5959C24.3388 36.266 24.4171 35.9407 24.5673 35.6471C24.7439 35.3003 25.0119 35.0086 25.3422 34.8035C25.6725 34.5984 26.0525 34.4878 26.4411 34.4835H43.4301C43.7627 34.4818 44.0905 34.5628 44.3843 34.719C44.7862 34.9218 45.1114 35.2499 45.3108 35.654C45.4593 35.943 45.5352 36.2639 45.5321 36.589V64.9569C45.5352 65.282 45.4593 65.6029 45.3108 65.8919C45.1085 66.3044 44.7754 66.6381 44.3636 66.8407C44.075 66.9894 43.7546 67.0655 43.4301 67.0624H26.4411C26.3307 67.0729 26.2196 67.0729 26.1092 67.0624C25.9016 67.0314 25.7006 66.9659 25.5145 66.8685C25.6142 66.9479 25.7181 67.0218 25.8257 67.0901H23.0599C23.2757 67.4528 23.5516 67.776 23.8758 68.0458C24.5232 68.608 25.3371 68.9414 26.1922 68.9947C26.2842 69.0018 26.3767 69.0018 26.4688 68.9947H43.4578C44.5203 68.9837 45.5358 68.5537 46.2839 67.7979C47.032 67.042 47.4526 66.0213 47.4543 64.9569V36.5959C47.4543 36.0669 47.3502 35.5431 47.1479 35.0544C46.9456 34.5658 46.649 34.1219 46.2752 33.7481C45.9015 33.3744 45.4578 33.0782 44.9696 32.8763C44.4814 32.6745 43.9582 32.5711 43.4301 32.572ZM24.3391 64.9569V62.0897C24.1481 62.0115 23.9438 61.9716 23.7375 61.9719C23.6187 61.9713 23.5003 61.9852 23.3849 62.0135C22.9888 62.1108 22.6463 62.3593 22.4307 62.7061V64.3544C22.5727 64.5707 22.7669 64.7476 22.9954 64.8687C23.2238 64.9897 23.4791 65.0511 23.7375 65.047C23.8294 65.0576 23.9222 65.0576 24.0141 65.047C24.1717 65.3497 24.3568 65.6372 24.5673 65.9058C24.4171 65.6121 24.3388 65.2869 24.3391 64.9569Z" fill="#224086"/>
<path d="M34.9328 45.2251C32.8419 45.2309 30.8077 45.9062 29.1271 47.1522C27.4465 48.3981 26.2076 50.1496 25.5912 52.1508C25.4706 52.536 25.3782 52.9295 25.3147 53.3282C25.2661 53.5731 25.2314 53.8205 25.2109 54.0693H25.8332C26.1006 54.068 26.3623 54.1471 26.5842 54.2966C26.8061 54.446 26.9781 54.6588 27.0779 54.9073C27.0779 54.7757 27.0779 54.6441 27.0779 54.5194C27.1902 52.8462 27.8321 51.2523 28.9102 49.9692C29.4564 49.3167 30.103 48.7556 30.8255 48.307C32.0172 47.5771 33.3816 47.1783 34.7782 47.1518C36.1748 47.1253 37.5533 47.472 38.7718 48.1562C39.9902 48.8405 41.0047 49.8375 41.7107 51.0447C42.4168 52.252 42.789 53.6258 42.789 55.025C42.789 56.4241 42.4168 57.798 41.7107 59.0053C41.0047 60.2125 39.9902 61.2096 38.7718 61.8938C37.5533 62.578 36.1748 62.9247 34.7782 62.8982C33.3816 62.8717 32.0172 62.473 30.8255 61.743C30.1738 61.3391 29.5825 60.8448 29.0692 60.2747L28.9102 60.0877C28.6097 59.7378 28.3434 59.3598 28.115 58.9589C27.6344 58.1272 27.3109 57.2139 27.1608 56.2647V60.9673C27.451 61.3491 27.77 61.708 28.115 62.0408C28.3635 62.2901 28.6293 62.5215 28.9102 62.7334C28.9598 62.7792 29.013 62.8209 29.0692 62.858C29.6291 63.263 30.2292 63.6089 30.8601 63.89C32.1859 64.4918 33.6293 64.7892 35.0846 64.7606C36.5399 64.7319 37.9705 64.378 39.2717 63.7245C40.5729 63.0711 41.7119 62.1347 42.6054 60.9837C43.499 59.8328 44.1245 58.4964 44.4362 57.0723C44.748 55.6481 44.7381 54.1722 44.4073 52.7524C44.0765 51.3326 43.4332 50.0047 42.5243 48.8659C41.6154 47.7271 40.464 46.806 39.1541 46.1701C37.8442 45.5342 36.4091 45.1995 34.9535 45.1904L34.9328 45.2251Z" fill="#224086"/>
<path d="M45.5319 39.8025H24.3389V41.714H45.5319V39.8025Z" fill="#329A6B"/>
<path d="M17.7218 55.7107H6.10535C5.5552 55.7107 5.02757 55.9296 4.63856 56.3193C4.24954 56.7089 4.03099 57.2374 4.03099 57.7885V63.1421C4.03099 63.6931 4.24954 64.2216 4.63856 64.6113C5.02757 65.0009 5.5552 65.2198 6.10535 65.2198H17.7218C18.2719 65.2198 18.7995 65.0009 19.1886 64.6113C19.5776 64.2216 19.7961 63.6931 19.7961 63.1421V57.7885C19.7961 57.2374 19.5776 56.7089 19.1886 56.3193C18.7995 55.9296 18.2719 55.7107 17.7218 55.7107ZM17.9154 63.1698C17.9154 63.2212 17.895 63.2705 17.8587 63.3069C17.8224 63.3432 17.7731 63.3637 17.7218 63.3637H6.10535C6.05455 63.362 6.0063 63.341 5.97036 63.305C5.93442 63.269 5.91347 63.2206 5.91174 63.1698V57.8161C5.91347 57.7653 5.93442 57.7169 5.97036 57.6809C6.0063 57.6449 6.05455 57.6239 6.10535 57.6222H17.7218C17.7731 57.6222 17.8224 57.6427 17.8587 57.679C17.895 57.7154 17.9154 57.7647 17.9154 57.8161V63.1698ZM24.3182 56.1609C24.1287 56.0772 23.9237 56.0347 23.7167 56.0362C23.5979 56.0356 23.4794 56.0495 23.364 56.0778C23.1671 56.1242 22.9814 56.2093 22.8176 56.3282C22.6538 56.4471 22.5152 56.5974 22.4098 56.7703C22.2564 57.0152 22.175 57.2985 22.175 57.5876C22.175 57.8767 22.2564 58.1599 22.4098 58.4048C22.6249 58.7521 22.9676 59.0008 23.364 59.0974C23.4794 59.1256 23.5979 59.1396 23.7167 59.1389C23.9237 59.1404 24.1287 59.0979 24.3182 59.0143C24.5999 58.8973 24.8406 58.6994 25.0099 58.4454C25.1793 58.1915 25.2697 57.893 25.2697 57.5876C25.2697 57.2822 25.1793 56.9837 25.0099 56.7297C24.8406 56.4758 24.5999 56.2778 24.3182 56.1609ZM27.084 54.8866V55.0043C27.0845 55.4194 27.1169 55.8338 27.1808 56.244V55.3852C27.1792 55.2138 27.144 55.0444 27.0771 54.8866H27.084ZM24.5672 65.8916C24.7701 66.2978 25.1005 66.6263 25.5075 66.8266C25.159 66.5525 24.8434 66.2387 24.5672 65.8916ZM24.339 56.1609C24.1495 56.0772 23.9445 56.0347 23.7374 56.0362C23.6186 56.0356 23.5002 56.0495 23.3848 56.0778C23.1879 56.1242 23.0021 56.2093 22.8383 56.3282C22.6745 56.4471 22.5359 56.5974 22.4306 56.7703C22.2771 57.0152 22.1958 57.2985 22.1958 57.5876C22.1958 57.8767 22.2771 58.1599 22.4306 58.4048C22.6457 58.7521 22.9883 59.0008 23.3848 59.0974C23.5002 59.1256 23.6186 59.1396 23.7374 59.1389C23.9445 59.1404 24.1495 59.0979 24.339 59.0143C24.6206 58.8973 24.8613 58.6994 25.0307 58.4454C25.2 58.1915 25.2904 57.893 25.2904 57.5876C25.2904 57.2822 25.2 56.9837 25.0307 56.7297C24.8613 56.4758 24.6206 56.2778 24.339 56.1609ZM24.339 62.0755V64.9566C24.6196 64.8369 24.8589 64.6371 25.0271 64.3822C25.1953 64.1273 25.285 63.8285 25.285 63.523C25.285 63.2174 25.1953 62.9186 25.0271 62.6637C24.8589 62.4088 24.6196 62.2091 24.339 62.0893V62.0755ZM22.1955 63.5091C22.1935 63.8007 22.2751 64.0867 22.4306 64.3333V62.6849C22.2751 62.9315 22.1935 63.2175 22.1955 63.5091ZM17.7218 55.7107H6.10535C5.5552 55.7107 5.02757 55.9296 4.63856 56.3193C4.24954 56.7089 4.03099 57.2374 4.03099 57.7885V63.1421C4.03099 63.6931 4.24954 64.2216 4.63856 64.6113C5.02757 65.0009 5.5552 65.2198 6.10535 65.2198H17.7218C18.2719 65.2198 18.7995 65.0009 19.1886 64.6113C19.5776 64.2216 19.7961 63.6931 19.7961 63.1421V57.7885C19.7961 57.2374 19.5776 56.7089 19.1886 56.3193C18.7995 55.9296 18.2719 55.7107 17.7218 55.7107ZM17.9154 63.1698C17.9154 63.2212 17.895 63.2705 17.8587 63.3069C17.8224 63.3432 17.7731 63.3637 17.7218 63.3637H6.10535C6.05455 63.362 6.0063 63.341 5.97036 63.305C5.93442 63.269 5.91347 63.2206 5.91174 63.1698V57.8161C5.91347 57.7653 5.93442 57.7169 5.97036 57.6809C6.0063 57.6449 6.05455 57.6239 6.10535 57.6222H17.7218C17.7731 57.6222 17.8224 57.6427 17.8587 57.679C17.895 57.7154 17.9154 57.7647 17.9154 57.8161V63.1698ZM17.7218 55.7107H6.10535C5.5552 55.7107 5.02757 55.9296 4.63856 56.3193C4.24954 56.7089 4.03099 57.2374 4.03099 57.7885V63.1421C4.03099 63.6931 4.24954 64.2216 4.63856 64.6113C5.02757 65.0009 5.5552 65.2198 6.10535 65.2198H17.7218C18.2719 65.2198 18.7995 65.0009 19.1886 64.6113C19.5776 64.2216 19.7961 63.6931 19.7961 63.1421V57.7885C19.7961 57.2374 19.5776 56.7089 19.1886 56.3193C18.7995 55.9296 18.2719 55.7107 17.7218 55.7107ZM17.9154 63.1698C17.9154 63.2212 17.895 63.2705 17.8587 63.3069C17.8224 63.3432 17.7731 63.3637 17.7218 63.3637H6.10535C6.05455 63.362 6.0063 63.341 5.97036 63.305C5.93442 63.269 5.91347 63.2206 5.91174 63.1698V57.8161C5.91347 57.7653 5.93442 57.7169 5.97036 57.6809C6.0063 57.6449 6.05455 57.6239 6.10535 57.6222H17.7218C17.7731 57.6222 17.8224 57.6427 17.8587 57.679C17.895 57.7154 17.9154 57.7647 17.9154 57.8161V63.1698ZM25.2655 63.5091C25.2663 63.2032 25.1768 62.9039 25.0083 62.6488C24.8397 62.3938 24.5996 62.1943 24.3182 62.0755C24.1273 61.9974 23.9229 61.9574 23.7167 61.9577C23.5979 61.9571 23.4794 61.971 23.364 61.9993C22.9679 62.0966 22.6255 62.3451 22.4098 62.6919C22.2631 62.9263 22.1816 63.1957 22.1738 63.4723C22.166 63.7488 22.2322 64.0224 22.3655 64.2648C22.4988 64.5071 22.6944 64.7093 22.9319 64.8504C23.1695 64.9916 23.4404 65.0665 23.7167 65.0674C23.8086 65.078 23.9014 65.078 23.9932 65.0674C24.1508 65.3701 24.336 65.6577 24.5464 65.9262C24.3962 65.6326 24.318 65.3073 24.3182 64.9774C24.609 64.8596 24.8573 64.6562 25.0302 64.394C25.203 64.1318 25.2923 63.8232 25.2863 63.5091H25.2655ZM24.339 56.1609C24.1495 56.0772 23.9445 56.0347 23.7374 56.0362C23.6186 56.0356 23.5002 56.0495 23.3848 56.0778C23.1879 56.1242 23.0021 56.2093 22.8383 56.3282C22.6745 56.4471 22.5359 56.5974 22.4306 56.7703C22.2771 57.0152 22.1958 57.2985 22.1958 57.5876C22.1958 57.8767 22.2771 58.1599 22.4306 58.4048C22.6457 58.7521 22.9883 59.0008 23.3848 59.0974C23.5002 59.1256 23.6186 59.1396 23.7374 59.1389C23.9445 59.1404 24.1495 59.0979 24.339 59.0143C24.6206 58.8973 24.8613 58.6994 25.0307 58.4454C25.2 58.1915 25.2904 57.893 25.2904 57.5876C25.2904 57.2822 25.2 56.9837 25.0307 56.7297C24.8613 56.4758 24.6206 56.2778 24.339 56.1609ZM24.5672 65.8916C24.7701 66.2978 25.1005 66.6263 25.5075 66.8266C25.159 66.5525 24.8434 66.2387 24.5672 65.8916ZM27.0771 54.8866V55.0043C27.0776 55.4194 27.11 55.8338 27.1739 56.244V55.3852C27.1745 55.2142 27.1416 55.0449 27.0771 54.8866ZM24.5672 65.8916C24.7701 66.2978 25.1005 66.6263 25.5075 66.8266C25.159 66.5525 24.8434 66.2387 24.5672 65.8916ZM25.2586 63.5091C25.2594 63.2032 25.1699 62.9039 25.0014 62.6488C24.8328 62.3938 24.5927 62.1943 24.3113 62.0755C24.1204 61.9974 23.916 61.9574 23.7098 61.9577C23.591 61.9571 23.4725 61.971 23.3571 61.9993C22.961 62.0966 22.6185 62.3451 22.4029 62.6919C22.2562 62.9263 22.1747 63.1957 22.1669 63.4723C22.1591 63.7488 22.2253 64.0224 22.3586 64.2648C22.4919 64.5071 22.6874 64.7093 22.925 64.8504C23.1626 64.9916 23.4335 65.0665 23.7098 65.0674C23.8016 65.078 23.8944 65.078 23.9863 65.0674C24.1439 65.3701 24.3291 65.6577 24.5395 65.9262C24.3893 65.6326 24.3111 65.3073 24.3113 64.9774C24.6034 64.8607 24.8532 64.6578 25.0273 64.3955C25.2015 64.1332 25.2918 63.824 25.2863 63.5091H25.2586ZM24.339 56.1609C24.1495 56.0772 23.9445 56.0347 23.7374 56.0362C23.6186 56.0356 23.5002 56.0495 23.3848 56.0778C23.1879 56.1242 23.0021 56.2093 22.8383 56.3282C22.6745 56.4471 22.5359 56.5974 22.4306 56.7703C22.2771 57.0152 22.1958 57.2985 22.1958 57.5876C22.1958 57.8767 22.2771 58.1599 22.4306 58.4048C22.6457 58.7521 22.9883 59.0008 23.3848 59.0974C23.5002 59.1256 23.6186 59.1396 23.7374 59.1389C23.9445 59.1404 24.1495 59.0979 24.339 59.0143C24.6206 58.8973 24.8613 58.6994 25.0307 58.4454C25.2 58.1915 25.2904 57.893 25.2904 57.5876C25.2904 57.2822 25.2 56.9837 25.0307 56.7297C24.8613 56.4758 24.6206 56.2778 24.339 56.1609ZM17.7218 55.7107H6.10535C5.5552 55.7107 5.02757 55.9296 4.63856 56.3193C4.24954 56.7089 4.03099 57.2374 4.03099 57.7885V63.1421C4.03099 63.6931 4.24954 64.2216 4.63856 64.6113C5.02757 65.0009 5.5552 65.2198 6.10535 65.2198H17.7218C18.2719 65.2198 18.7995 65.0009 19.1886 64.6113C19.5776 64.2216 19.7961 63.6931 19.7961 63.1421V57.7885C19.7961 57.2374 19.5776 56.7089 19.1886 56.3193C18.7995 55.9296 18.2719 55.7107 17.7218 55.7107ZM17.9154 63.1698C17.9154 63.2212 17.895 63.2705 17.8587 63.3069C17.8224 63.3432 17.7731 63.3637 17.7218 63.3637H6.10535C6.05455 63.362 6.0063 63.341 5.97036 63.305C5.93442 63.269 5.91347 63.2206 5.91174 63.1698V57.8161C5.91347 57.7653 5.93442 57.7169 5.97036 57.6809C6.0063 57.6449 6.05455 57.6239 6.10535 57.6222H17.7218C17.7731 57.6222 17.8224 57.6427 17.8587 57.679C17.895 57.7154 17.9154 57.7647 17.9154 57.8161V63.1698ZM17.7218 55.7107H6.10535C5.5552 55.7107 5.02757 55.9296 4.63856 56.3193C4.24954 56.7089 4.03099 57.2374 4.03099 57.7885V63.1421C4.03099 63.6931 4.24954 64.2216 4.63856 64.6113C5.02757 65.0009 5.5552 65.2198 6.10535 65.2198H17.7218C18.2719 65.2198 18.7995 65.0009 19.1886 64.6113C19.5776 64.2216 19.7961 63.6931 19.7961 63.1421V57.7885C19.7961 57.2374 19.5776 56.7089 19.1886 56.3193C18.7995 55.9296 18.2719 55.7107 17.7218 55.7107ZM17.9154 63.1698C17.9154 63.2212 17.895 63.2705 17.8587 63.3069C17.8224 63.3432 17.7731 63.3637 17.7218 63.3637H6.10535C6.05455 63.362 6.0063 63.341 5.97036 63.305C5.93442 63.269 5.91347 63.2206 5.91174 63.1698V57.8161C5.91347 57.7653 5.93442 57.7169 5.97036 57.6809C6.0063 57.6449 6.05455 57.6239 6.10535 57.6222H17.7218C17.7731 57.6222 17.8224 57.6427 17.8587 57.679C17.895 57.7154 17.9154 57.7647 17.9154 57.8161V63.1698ZM25.2655 63.5091C25.2663 63.2032 25.1768 62.9039 25.0083 62.6488C24.8397 62.3938 24.5996 62.1943 24.3182 62.0755C24.1273 61.9974 23.9229 61.9574 23.7167 61.9577C23.5979 61.9571 23.4794 61.971 23.364 61.9993C22.9679 62.0966 22.6255 62.3451 22.4098 62.6919C22.2631 62.9263 22.1816 63.1957 22.1738 63.4723C22.166 63.7488 22.2322 64.0224 22.3655 64.2648C22.4988 64.5071 22.6944 64.7093 22.9319 64.8504C23.1695 64.9916 23.4404 65.0665 23.7167 65.0674C23.8086 65.078 23.9014 65.078 23.9932 65.0674C24.1508 65.3701 24.336 65.6577 24.5464 65.9262C24.3962 65.6326 24.318 65.3073 24.3182 64.9774C24.609 64.8596 24.8573 64.6562 25.0302 64.394C25.203 64.1318 25.2923 63.8232 25.2863 63.5091H25.2655ZM24.339 56.1609C24.1495 56.0772 23.9445 56.0347 23.7374 56.0362C23.6186 56.0356 23.5002 56.0495 23.3848 56.0778C23.1879 56.1242 23.0021 56.2093 22.8383 56.3282C22.6745 56.4471 22.5359 56.5974 22.4306 56.7703C22.2771 57.0152 22.1958 57.2985 22.1958 57.5876C22.1958 57.8767 22.2771 58.1599 22.4306 58.4048C22.6457 58.7521 22.9883 59.0008 23.3848 59.0974C23.5002 59.1256 23.6186 59.1396 23.7374 59.1389C23.9445 59.1404 24.1495 59.0979 24.339 59.0143C24.6206 58.8973 24.8613 58.6994 25.0307 58.4454C25.2 58.1915 25.2904 57.893 25.2904 57.5876C25.2904 57.2822 25.2 56.9837 25.0307 56.7297C24.8613 56.4758 24.6206 56.2778 24.339 56.1609ZM24.5672 65.8916C24.7701 66.2978 25.1005 66.6263 25.5075 66.8266C25.159 66.5525 24.8434 66.2387 24.5672 65.8916ZM27.0771 54.8866V55.0043C27.0776 55.4194 27.11 55.8338 27.1739 56.244V55.3852C27.1745 55.2142 27.1416 55.0449 27.0771 54.8866ZM24.5672 65.8916C24.7701 66.2978 25.1005 66.6263 25.5075 66.8266C25.159 66.5525 24.8434 66.2387 24.5672 65.8916ZM25.2586 63.5091C25.2594 63.2032 25.1699 62.9039 25.0014 62.6488C24.8328 62.3938 24.5927 62.1943 24.3113 62.0755C24.1204 61.9974 23.916 61.9574 23.7098 61.9577C23.591 61.9571 23.4725 61.971 23.3571 61.9993C22.961 62.0966 22.6185 62.3451 22.4029 62.6919C22.2562 62.9263 22.1747 63.1957 22.1669 63.4723C22.1591 63.7488 22.2253 64.0224 22.3586 64.2648C22.4919 64.5071 22.6874 64.7093 22.925 64.8504C23.1626 64.9916 23.4335 65.0665 23.7098 65.0674C23.8016 65.078 23.8944 65.078 23.9863 65.0674C24.1439 65.3701 24.3291 65.6577 24.5395 65.9262C24.3893 65.6326 24.3111 65.3073 24.3113 64.9774C24.6034 64.8607 24.8532 64.6578 25.0273 64.3955C25.2015 64.1332 25.2918 63.824 25.2863 63.5091H25.2586ZM23.3571 59.0974C23.4725 59.1256 23.591 59.1396 23.7098 59.1389C23.9168 59.1404 24.1218 59.0979 24.3113 59.0143C24.593 58.8973 24.8337 58.6994 25.003 58.4454C25.1724 58.1915 25.2628 57.893 25.2628 57.5876C25.2628 57.2822 25.1724 56.9837 25.003 56.7297C24.8337 56.4758 24.593 56.2778 24.3113 56.1609C24.1218 56.0772 23.9168 56.0347 23.7098 56.0362C23.591 56.0356 23.4725 56.0495 23.3571 56.0778C23.1602 56.1242 22.9745 56.2093 22.8107 56.3282C22.6469 56.4471 22.5083 56.5974 22.4029 56.7703C22.2495 57.0152 22.1681 57.2985 22.1681 57.5876C22.1681 57.8767 22.2495 58.1599 22.4029 58.4048C22.5126 58.5797 22.6559 58.731 22.8244 58.8499C22.993 58.9688 23.1835 59.0529 23.3848 59.0974H23.3571ZM17.7218 55.7107H6.10535C5.5552 55.7107 5.02757 55.9296 4.63856 56.3193C4.24954 56.7089 4.03099 57.2374 4.03099 57.7885V63.1421C4.03099 63.6931 4.24954 64.2216 4.63856 64.6113C5.02757 65.0009 5.5552 65.2198 6.10535 65.2198H17.7218C18.2719 65.2198 18.7995 65.0009 19.1886 64.6113C19.5776 64.2216 19.7961 63.6931 19.7961 63.1421V57.7885C19.7961 57.2374 19.5776 56.7089 19.1886 56.3193C18.7995 55.9296 18.2719 55.7107 17.7218 55.7107ZM17.9154 63.1698C17.9154 63.2212 17.895 63.2705 17.8587 63.3069C17.8224 63.3432 17.7731 63.3637 17.7218 63.3637H6.10535C6.05455 63.362 6.0063 63.341 5.97036 63.305C5.93442 63.269 5.91347 63.2206 5.91174 63.1698V57.8161C5.91347 57.7653 5.93442 57.7169 5.97036 57.6809C6.0063 57.6449 6.05455 57.6239 6.10535 57.6222H17.7218C17.7731 57.6222 17.8224 57.6427 17.8587 57.679C17.895 57.7154 17.9154 57.7647 17.9154 57.8161V63.1698ZM27.091 54.4987C26.6185 53.9527 26.0102 53.5417 25.3277 53.3075C25.0129 53.1982 24.6851 53.1307 24.3528 53.1066C24.2331 53.0995 24.113 53.0995 23.9932 53.1066H5.10966C4.00935 53.1066 2.95411 53.5444 2.17607 54.3237C1.39804 55.103 0.960938 56.16 0.960938 57.2621V63.8693C0.960938 64.9714 1.39804 66.0283 2.17607 66.8076C2.95411 67.5869 4.00935 68.0247 5.10966 68.0247H23.9794C24.7894 68.024 25.5809 67.783 26.2543 67.3321C26.3821 67.25 26.5045 67.1598 26.6208 67.062C27.0916 66.6727 27.4709 66.184 27.7314 65.6309C27.992 65.0778 28.1274 64.4739 28.1281 63.8623V57.2552C28.1359 56.2393 27.7662 55.2568 27.091 54.4987ZM27.1739 65.7115C27.1771 66.0215 27.0726 66.3229 26.8784 66.5642C26.6841 66.8056 26.4122 66.9717 26.1091 67.0343C25.9015 67.0034 25.7005 66.9378 25.5144 66.8404C25.6141 66.9198 25.718 66.9938 25.8256 67.062H3.24965C2.89572 67.062 2.55628 66.9212 2.30601 66.6706C2.05574 66.4199 1.91514 66.0799 1.91514 65.7254V55.3852C1.91514 55.0307 2.05574 54.6907 2.30601 54.44C2.55628 54.1894 2.89572 54.0485 3.24965 54.0485H25.8325C26.0999 54.0472 26.3615 54.1264 26.5835 54.2759C26.8054 54.4253 26.9774 54.6381 27.0771 54.8866V55.0043C27.0776 55.4194 27.11 55.8338 27.1739 56.244V65.7115ZM24.5672 65.8916C24.7701 66.2978 25.1005 66.6263 25.5075 66.8266C25.159 66.5525 24.8434 66.2387 24.5672 65.8916ZM24.339 56.1609C24.1495 56.0772 23.9445 56.0347 23.7374 56.0362C23.6186 56.0356 23.5002 56.0495 23.3848 56.0778C23.1879 56.1242 23.0021 56.2093 22.8383 56.3282C22.6745 56.4471 22.5359 56.5974 22.4306 56.7703C22.2771 57.0152 22.1958 57.2985 22.1958 57.5876C22.1958 57.8767 22.2771 58.1599 22.4306 58.4048C22.6457 58.7521 22.9883 59.0008 23.3848 59.0974C23.5002 59.1256 23.6186 59.1396 23.7374 59.1389C23.9445 59.1404 24.1495 59.0979 24.339 59.0143C24.6206 58.8973 24.8613 58.6994 25.0307 58.4454C25.2 58.1915 25.2904 57.893 25.2904 57.5876C25.2904 57.2822 25.2 56.9837 25.0307 56.7297C24.8613 56.4758 24.6206 56.2778 24.339 56.1609ZM25.2863 63.5091C25.2871 63.2032 25.1976 62.9039 25.029 62.6488C24.8605 62.3938 24.6204 62.1943 24.339 62.0755C24.148 61.9974 23.9437 61.9574 23.7374 61.9577C23.6186 61.9571 23.5002 61.971 23.3848 61.9993C22.9887 62.0966 22.6462 62.3451 22.4306 62.6919C22.2838 62.9263 22.2023 63.1957 22.1945 63.4723C22.1867 63.7488 22.2529 64.0224 22.3862 64.2648C22.5195 64.5071 22.7151 64.7093 22.9527 64.8504C23.1903 64.9916 23.4612 65.0665 23.7374 65.0674C23.8293 65.078 23.9221 65.078 24.014 65.0674C24.1716 65.3701 24.3567 65.6577 24.5672 65.9262C24.417 65.6326 24.3387 65.3073 24.339 64.9774C24.6259 64.8564 24.8698 64.6515 25.0387 64.3896C25.2077 64.1277 25.294 63.8209 25.2863 63.5091ZM17.7218 55.7107H6.10535C5.5552 55.7107 5.02757 55.9296 4.63856 56.3193C4.24954 56.7089 4.03099 57.2374 4.03099 57.7885V63.1421C4.03099 63.6931 4.24954 64.2216 4.63856 64.6113C5.02757 65.0009 5.5552 65.2198 6.10535 65.2198H17.7218C18.2719 65.2198 18.7995 65.0009 19.1886 64.6113C19.5776 64.2216 19.7961 63.6931 19.7961 63.1421V57.7885C19.7961 57.2374 19.5776 56.7089 19.1886 56.3193C18.7995 55.9296 18.2719 55.7107 17.7218 55.7107ZM17.9154 63.1698C17.9154 63.2212 17.895 63.2705 17.8587 63.3069C17.8224 63.3432 17.7731 63.3637 17.7218 63.3637H6.10535C6.05455 63.362 6.0063 63.341 5.97036 63.305C5.93442 63.269 5.91347 63.2206 5.91174 63.1698V57.8161C5.91347 57.7653 5.93442 57.7169 5.97036 57.6809C6.0063 57.6449 6.05455 57.6239 6.10535 57.6222H17.7218C17.7731 57.6222 17.8224 57.6427 17.8587 57.679C17.895 57.7154 17.9154 57.7647 17.9154 57.8161V63.1698ZM17.7218 55.7107H6.10535C5.5552 55.7107 5.02757 55.9296 4.63856 56.3193C4.24954 56.7089 4.03099 57.2374 4.03099 57.7885V63.1421C4.03099 63.6931 4.24954 64.2216 4.63856 64.6113C5.02757 65.0009 5.5552 65.2198 6.10535 65.2198H17.7218C18.2719 65.2198 18.7995 65.0009 19.1886 64.6113C19.5776 64.2216 19.7961 63.6931 19.7961 63.1421V57.7885C19.7961 57.2374 19.5776 56.7089 19.1886 56.3193C18.7995 55.9296 18.2719 55.7107 17.7218 55.7107ZM17.9154 63.1698C17.9154 63.2212 17.895 63.2705 17.8587 63.3069C17.8224 63.3432 17.7731 63.3637 17.7218 63.3637H6.10535C6.05455 63.362 6.0063 63.341 5.97036 63.305C5.93442 63.269 5.91347 63.2206 5.91174 63.1698V57.8161C5.91347 57.7653 5.93442 57.7169 5.97036 57.6809C6.0063 57.6449 6.05455 57.6239 6.10535 57.6222H17.7218C17.7731 57.6222 17.8224 57.6427 17.8587 57.679C17.895 57.7154 17.9154 57.7647 17.9154 57.8161V63.1698ZM24.3182 56.1609C24.1287 56.0772 23.9237 56.0347 23.7167 56.0362C23.5979 56.0356 23.4794 56.0495 23.364 56.0778C23.1671 56.1242 22.9814 56.2093 22.8176 56.3282C22.6538 56.4471 22.5152 56.5974 22.4098 56.7703C22.2564 57.0152 22.175 57.2985 22.175 57.5876C22.175 57.8767 22.2564 58.1599 22.4098 58.4048C22.6249 58.7521 22.9676 59.0008 23.364 59.0974C23.4794 59.1256 23.5979 59.1396 23.7167 59.1389C23.9237 59.1404 24.1287 59.0979 24.3182 59.0143C24.5999 58.8973 24.8406 58.6994 25.0099 58.4454C25.1793 58.1915 25.2697 57.893 25.2697 57.5876C25.2697 57.2822 25.1793 56.9837 25.0099 56.7297C24.8406 56.4758 24.5999 56.2778 24.3182 56.1609ZM25.2655 63.5091C25.2663 63.2032 25.1768 62.9039 25.0083 62.6488C24.8397 62.3938 24.5996 62.1943 24.3182 62.0755C24.1273 61.9974 23.9229 61.9574 23.7167 61.9577C23.5979 61.9571 23.4794 61.971 23.364 61.9993C22.9679 62.0966 22.6255 62.3451 22.4098 62.6919C22.2631 62.9263 22.1816 63.1957 22.1738 63.4723C22.166 63.7488 22.2322 64.0224 22.3655 64.2648C22.4988 64.5071 22.6944 64.7093 22.9319 64.8504C23.1695 64.9916 23.4404 65.0665 23.7167 65.0674C23.8086 65.078 23.9014 65.078 23.9932 65.0674C24.1508 65.3701 24.336 65.6577 24.5464 65.9262C24.3962 65.6326 24.318 65.3073 24.3182 64.9774C24.609 64.8596 24.8573 64.6562 25.0302 64.394C25.203 64.1318 25.2923 63.8232 25.2863 63.5091H25.2655ZM24.5741 65.8916C24.7771 66.2978 25.1074 66.6263 25.5144 66.8266C25.1634 66.5529 24.8455 66.2391 24.5672 65.8916H24.5741ZM27.084 54.8866V55.0043C27.0845 55.4194 27.1169 55.8338 27.1808 56.244V55.3852C27.1792 55.2138 27.144 55.0444 27.0771 54.8866H27.084ZM24.5672 65.8916C24.7701 66.2978 25.1005 66.6263 25.5075 66.8266C25.159 66.5525 24.8434 66.2387 24.5672 65.8916ZM24.339 56.1609C24.1495 56.0772 23.9445 56.0347 23.7374 56.0362C23.6186 56.0356 23.5002 56.0495 23.3848 56.0778C23.1879 56.1242 23.0021 56.2093 22.8383 56.3282C22.6745 56.4471 22.5359 56.5974 22.4306 56.7703C22.2771 57.0152 22.1958 57.2985 22.1958 57.5876C22.1958 57.8767 22.2771 58.1599 22.4306 58.4048C22.6457 58.7521 22.9883 59.0008 23.3848 59.0974C23.5002 59.1256 23.6186 59.1396 23.7374 59.1389C23.9445 59.1404 24.1495 59.0979 24.339 59.0143C24.6206 58.8973 24.8613 58.6994 25.0307 58.4454C25.2 58.1915 25.2904 57.893 25.2904 57.5876C25.2904 57.2822 25.2 56.9837 25.0307 56.7297C24.8613 56.4758 24.6206 56.2778 24.339 56.1609ZM25.2863 63.5091C25.2871 63.2032 25.1976 62.9039 25.029 62.6488C24.8605 62.3938 24.6204 62.1943 24.339 62.0755C24.148 61.9974 23.9437 61.9574 23.7374 61.9577C23.6186 61.9571 23.5002 61.971 23.3848 61.9993C22.9887 62.0966 22.6462 62.3451 22.4306 62.6919C22.2838 62.9263 22.2023 63.1957 22.1945 63.4723C22.1867 63.7488 22.2529 64.0224 22.3862 64.2648C22.5195 64.5071 22.7151 64.7093 22.9527 64.8504C23.1903 64.9916 23.4612 65.0665 23.7374 65.0674C23.8293 65.078 23.9221 65.078 24.014 65.0674C24.1716 65.3701 24.3567 65.6577 24.5672 65.9262C24.417 65.6326 24.3387 65.3073 24.339 64.9774C24.6259 64.8564 24.8698 64.6515 25.0387 64.3896C25.2077 64.1277 25.294 63.8209 25.2863 63.5091ZM17.7218 55.7107H6.10535C5.5552 55.7107 5.02757 55.9296 4.63856 56.3193C4.24954 56.7089 4.03099 57.2374 4.03099 57.7885V63.1421C4.03099 63.6931 4.24954 64.2216 4.63856 64.6113C5.02757 65.0009 5.5552 65.2198 6.10535 65.2198H17.7218C18.2719 65.2198 18.7995 65.0009 19.1886 64.6113C19.5776 64.2216 19.7961 63.6931 19.7961 63.1421V57.7885C19.7961 57.2374 19.5776 56.7089 19.1886 56.3193C18.7995 55.9296 18.2719 55.7107 17.7218 55.7107ZM17.9154 63.1698C17.9154 63.2212 17.895 63.2705 17.8587 63.3069C17.8224 63.3432 17.7731 63.3637 17.7218 63.3637H6.10535C6.05455 63.362 6.0063 63.341 5.97036 63.305C5.93442 63.269 5.91347 63.2206 5.91174 63.1698V57.8161C5.91347 57.7653 5.93442 57.7169 5.97036 57.6809C6.0063 57.6449 6.05455 57.6239 6.10535 57.6222H17.7218C17.7731 57.6222 17.8224 57.6427 17.8587 57.679C17.895 57.7154 17.9154 57.7647 17.9154 57.8161V63.1698ZM17.7218 55.7107H6.10535C5.5552 55.7107 5.02757 55.9296 4.63856 56.3193C4.24954 56.7089 4.03099 57.2374 4.03099 57.7885V63.1421C4.03099 63.6931 4.24954 64.2216 4.63856 64.6113C5.02757 65.0009 5.5552 65.2198 6.10535 65.2198H17.7218C18.2719 65.2198 18.7995 65.0009 19.1886 64.6113C19.5776 64.2216 19.7961 63.6931 19.7961 63.1421V57.7885C19.7961 57.2374 19.5776 56.7089 19.1886 56.3193C18.7995 55.9296 18.2719 55.7107 17.7218 55.7107ZM17.9154 63.1698C17.9154 63.2212 17.895 63.2705 17.8587 63.3069C17.8224 63.3432 17.7731 63.3637 17.7218 63.3637H6.10535C6.05455 63.362 6.0063 63.341 5.97036 63.305C5.93442 63.269 5.91347 63.2206 5.91174 63.1698V57.8161C5.91347 57.7653 5.93442 57.7169 5.97036 57.6809C6.0063 57.6449 6.05455 57.6239 6.10535 57.6222H17.7218C17.7731 57.6222 17.8224 57.6427 17.8587 57.679C17.895 57.7154 17.9154 57.7647 17.9154 57.8161V63.1698ZM24.3182 56.1609C24.1287 56.0772 23.9237 56.0347 23.7167 56.0362C23.5979 56.0356 23.4794 56.0495 23.364 56.0778C23.1671 56.1242 22.9814 56.2093 22.8176 56.3282C22.6538 56.4471 22.5152 56.5974 22.4098 56.7703C22.2564 57.0152 22.175 57.2985 22.175 57.5876C22.175 57.8767 22.2564 58.1599 22.4098 58.4048C22.6249 58.7521 22.9676 59.0008 23.364 59.0974C23.4794 59.1256 23.5979 59.1396 23.7167 59.1389C23.9237 59.1404 24.1287 59.0979 24.3182 59.0143C24.5999 58.8973 24.8406 58.6994 25.0099 58.4454C25.1793 58.1915 25.2697 57.893 25.2697 57.5876C25.2697 57.2822 25.1793 56.9837 25.0099 56.7297C24.8406 56.4758 24.5999 56.2778 24.3182 56.1609ZM25.2655 63.5091C25.2663 63.2032 25.1768 62.9039 25.0083 62.6488C24.8397 62.3938 24.5996 62.1943 24.3182 62.0755C24.1273 61.9974 23.9229 61.9574 23.7167 61.9577C23.5979 61.9571 23.4794 61.971 23.364 61.9993C22.9679 62.0966 22.6255 62.3451 22.4098 62.6919C22.2631 62.9263 22.1816 63.1957 22.1738 63.4723C22.166 63.7488 22.2322 64.0224 22.3655 64.2648C22.4988 64.5071 22.6944 64.7093 22.9319 64.8504C23.1695 64.9916 23.4404 65.0665 23.7167 65.0674C23.8086 65.078 23.9014 65.078 23.9932 65.0674C24.1508 65.3701 24.336 65.6577 24.5464 65.9262C24.3962 65.6326 24.318 65.3073 24.3182 64.9774C24.609 64.8596 24.8573 64.6562 25.0302 64.394C25.203 64.1318 25.2923 63.8232 25.2863 63.5091H25.2655ZM24.5741 65.8916C24.7771 66.2978 25.1074 66.6263 25.5144 66.8266C25.1634 66.5529 24.8455 66.2391 24.5672 65.8916H24.5741ZM27.084 54.8866V55.0043C27.0845 55.4194 27.1169 55.8338 27.1808 56.244V55.3852C27.1792 55.2138 27.144 55.0444 27.0771 54.8866H27.084ZM24.5672 65.8916C24.7701 66.2978 25.1005 66.6263 25.5075 66.8266C25.159 66.5525 24.8434 66.2387 24.5672 65.8916ZM24.339 56.1609C24.1495 56.0772 23.9445 56.0347 23.7374 56.0362C23.6186 56.0356 23.5002 56.0495 23.3848 56.0778C23.1879 56.1242 23.0021 56.2093 22.8383 56.3282C22.6745 56.4471 22.5359 56.5974 22.4306 56.7703C22.2771 57.0152 22.1958 57.2985 22.1958 57.5876C22.1958 57.8767 22.2771 58.1599 22.4306 58.4048C22.6457 58.7521 22.9883 59.0008 23.3848 59.0974C23.5002 59.1256 23.6186 59.1396 23.7374 59.1389C23.9445 59.1404 24.1495 59.0979 24.339 59.0143C24.6206 58.8973 24.8613 58.6994 25.0307 58.4454C25.2 58.1915 25.2904 57.893 25.2904 57.5876C25.2904 57.2822 25.2 56.9837 25.0307 56.7297C24.8613 56.4758 24.6206 56.2778 24.339 56.1609ZM25.2863 63.5091C25.2871 63.2032 25.1976 62.9039 25.029 62.6488C24.8605 62.3938 24.6204 62.1943 24.339 62.0755C24.148 61.9974 23.9437 61.9574 23.7374 61.9577C23.6186 61.9571 23.5002 61.971 23.3848 61.9993C22.9887 62.0966 22.6462 62.3451 22.4306 62.6919C22.2838 62.9263 22.2023 63.1957 22.1945 63.4723C22.1867 63.7488 22.2529 64.0224 22.3862 64.2648C22.5195 64.5071 22.7151 64.7093 22.9527 64.8504C23.1903 64.9916 23.4612 65.0665 23.7374 65.0674C23.8293 65.078 23.9221 65.078 24.014 65.0674C24.1716 65.3701 24.3567 65.6577 24.5672 65.9262C24.417 65.6326 24.3387 65.3073 24.339 64.9774C24.6259 64.8564 24.8698 64.6515 25.0387 64.3896C25.2077 64.1277 25.294 63.8209 25.2863 63.5091ZM17.7218 55.7107H6.10535C5.5552 55.7107 5.02757 55.9296 4.63856 56.3193C4.24954 56.7089 4.03099 57.2374 4.03099 57.7885V63.1421C4.03099 63.6931 4.24954 64.2216 4.63856 64.6113C5.02757 65.0009 5.5552 65.2198 6.10535 65.2198H17.7218C18.2719 65.2198 18.7995 65.0009 19.1886 64.6113C19.5776 64.2216 19.7961 63.6931 19.7961 63.1421V57.7885C19.7961 57.2374 19.5776 56.7089 19.1886 56.3193C18.7995 55.9296 18.2719 55.7107 17.7218 55.7107ZM17.9154 63.1698C17.9154 63.2212 17.895 63.2705 17.8587 63.3069C17.8224 63.3432 17.7731 63.3637 17.7218 63.3637H6.10535C6.05455 63.362 6.0063 63.341 5.97036 63.305C5.93442 63.269 5.91347 63.2206 5.91174 63.1698V57.8161C5.91347 57.7653 5.93442 57.7169 5.97036 57.6809C6.0063 57.6449 6.05455 57.6239 6.10535 57.6222H17.7218C17.7731 57.6222 17.8224 57.6427 17.8587 57.679C17.895 57.7154 17.9154 57.7647 17.9154 57.8161V63.1698ZM17.7218 55.7107H6.10535C5.5552 55.7107 5.02757 55.9296 4.63856 56.3193C4.24954 56.7089 4.03099 57.2374 4.03099 57.7885V63.1421C4.03099 63.6931 4.24954 64.2216 4.63856 64.6113C5.02757 65.0009 5.5552 65.2198 6.10535 65.2198H17.7218C18.2719 65.2198 18.7995 65.0009 19.1886 64.6113C19.5776 64.2216 19.7961 63.6931 19.7961 63.1421V57.7885C19.7961 57.2374 19.5776 56.7089 19.1886 56.3193C18.7995 55.9296 18.2719 55.7107 17.7218 55.7107ZM17.9154 63.1698C17.9154 63.2212 17.895 63.2705 17.8587 63.3069C17.8224 63.3432 17.7731 63.3637 17.7218 63.3637H6.10535C6.05455 63.362 6.0063 63.341 5.97036 63.305C5.93442 63.269 5.91347 63.2206 5.91174 63.1698V57.8161C5.91347 57.7653 5.93442 57.7169 5.97036 57.6809C6.0063 57.6449 6.05455 57.6239 6.10535 57.6222H17.7218C17.7731 57.6222 17.8224 57.6427 17.8587 57.679C17.895 57.7154 17.9154 57.7647 17.9154 57.8161V63.1698ZM22.1747 63.5091C22.1727 63.8007 22.2543 64.0867 22.4098 64.3333V62.6849C22.2616 62.9337 22.1873 63.2196 22.1955 63.5091H22.1747ZM24.3182 62.0755V64.9566C24.5989 64.8369 24.8382 64.6371 25.0064 64.3822C25.1746 64.1273 25.2643 63.8285 25.2643 63.523C25.2643 63.2174 25.1746 62.9186 25.0064 62.6637C24.8382 62.4088 24.5989 62.2091 24.3182 62.0893V62.0755ZM24.5464 65.8916C24.7494 66.2978 25.0797 66.6263 25.4868 66.8266C25.1455 66.5512 24.8369 66.2375 24.5672 65.8916H24.5464ZM27.0564 54.8866V55.0043C27.0569 55.4194 27.0892 55.8338 27.1532 56.244V55.3852C27.1604 55.2156 27.1345 55.0463 27.0771 54.8866H27.0564ZM17.7218 55.7107H6.10535C5.5552 55.7107 5.02757 55.9296 4.63856 56.3193C4.24954 56.7089 4.03099 57.2374 4.03099 57.7885V63.1421C4.03099 63.6931 4.24954 64.2216 4.63856 64.6113C5.02757 65.0009 5.5552 65.2198 6.10535 65.2198H17.7218C18.2719 65.2198 18.7995 65.0009 19.1886 64.6113C19.5776 64.2216 19.7961 63.6931 19.7961 63.1421V57.7885C19.7961 57.2374 19.5776 56.7089 19.1886 56.3193C18.7995 55.9296 18.2719 55.7107 17.7218 55.7107ZM17.9154 63.1698C17.9154 63.2212 17.895 63.2705 17.8587 63.3069C17.8224 63.3432 17.7731 63.3637 17.7218 63.3637H6.10535C6.05455 63.362 6.0063 63.341 5.97036 63.305C5.93442 63.269 5.91347 63.2206 5.91174 63.1698V57.8161C5.91347 57.7653 5.93442 57.7169 5.97036 57.6809C6.0063 57.6449 6.05455 57.6239 6.10535 57.6222H17.7218C17.7731 57.6222 17.8224 57.6427 17.8587 57.679C17.895 57.7154 17.9154 57.7647 17.9154 57.8161V63.1698Z" fill="#224086"/>
<path d="M28.9235 54.3813C28.673 53.621 28.1542 52.9783 27.4645 52.5737C26.9703 52.2815 26.4066 52.1283 25.8327 52.1304H3.24983C2.38848 52.1322 1.56294 52.4758 0.953871 53.0858C0.344805 53.6959 0.00182683 54.5228 0 55.3855V65.7119C0.00182683 66.5746 0.344805 67.4015 0.953871 68.0115C1.56294 68.6216 2.38848 68.9651 3.24983 68.9669H25.8327H26.1646C26.933 68.8868 27.6471 68.5329 28.1767 67.9696C28.4337 67.6969 28.6398 67.3802 28.7852 67.0347C28.9764 66.6151 29.0755 66.1592 29.0756 65.698V55.3855C29.0785 55.0448 29.0271 54.7058 28.9235 54.3813ZM26.1093 67.0347C26.0197 67.0449 25.9292 67.0449 25.8396 67.0347H3.24983C2.8959 67.0347 2.55646 66.8938 2.30619 66.6431C2.05593 66.3925 1.91533 66.0525 1.91533 65.698V55.3855C1.91533 55.031 2.05593 54.691 2.30619 54.4404C2.55646 54.1897 2.8959 54.0488 3.24983 54.0488H25.8327C26.1001 54.0475 26.3617 54.1268 26.5836 54.2762C26.8056 54.4256 26.9775 54.6384 27.0773 54.8869C27.1418 55.0452 27.1747 55.2146 27.1741 55.3855V65.7119C27.1773 66.0218 27.0728 66.3232 26.8786 66.5646C26.6843 66.8059 26.4124 66.972 26.1093 67.0347Z" fill="#224086"/>
<path d="M16.8164 56.6458H7.03237C6.48221 56.6458 5.95459 56.8646 5.56557 57.2543C5.17655 57.6439 4.95801 58.1724 4.95801 58.7235V62.221C4.95801 62.772 5.17655 63.3005 5.56557 63.6902C5.95459 64.0798 6.48221 64.2987 7.03237 64.2987H16.8164C17.3666 64.2987 17.8942 64.0798 18.2832 63.6902C18.6722 63.3005 18.8908 62.772 18.8908 62.221V58.7235C18.8908 58.1724 18.6722 57.6439 18.2832 57.2543C17.8942 56.8646 17.3666 56.6458 16.8164 56.6458ZM17.9366 63.1491C17.9366 63.2005 17.9162 63.2498 17.8799 63.2862C17.8436 63.3226 17.7943 63.343 17.743 63.343H6.10582C6.05502 63.3412 6.00677 63.3202 5.97083 63.2842C5.93489 63.2482 5.91393 63.1999 5.91221 63.1491V57.7954C5.91393 57.7445 5.93489 57.6962 5.97083 57.6602C6.00677 57.6242 6.05502 57.6032 6.10582 57.6015H17.7222C17.7736 57.6015 17.8228 57.622 17.8591 57.6583C17.8954 57.6947 17.9158 57.744 17.9158 57.7954L17.9366 63.1491Z" fill="#224086"/>
<path d="M17.722 55.7107H6.10561C5.55546 55.7107 5.02783 55.9296 4.63881 56.3192C4.2498 56.7089 4.03125 57.2374 4.03125 57.7884V63.142C4.03125 63.6931 4.2498 64.2216 4.63881 64.6112C5.02783 65.0009 5.55546 65.2198 6.10561 65.2198H17.722C18.2722 65.2198 18.7998 65.0009 19.1888 64.6112C19.5778 64.2216 19.7964 63.6931 19.7964 63.142V57.7884C19.7964 57.2374 19.5778 56.7089 19.1888 56.3192C18.7998 55.9296 18.2722 55.7107 17.722 55.7107ZM17.9156 63.1697C17.9156 63.2212 17.8952 63.2705 17.8589 63.3068C17.8226 63.3432 17.7734 63.3637 17.722 63.3637H6.10561C6.05481 63.3619 6.00656 63.3409 5.97062 63.3049C5.93468 63.2689 5.91372 63.2206 5.912 63.1697V57.8161C5.91372 57.7652 5.93468 57.7169 5.97062 57.6809C6.00656 57.6449 6.05481 57.6239 6.10561 57.6222H17.722C17.7734 57.6222 17.8226 57.6426 17.8589 57.679C17.8952 57.7154 17.9156 57.7647 17.9156 57.8161V63.1697Z" fill="#224086"/>
<path fill-rule="evenodd" clip-rule="evenodd" d="M25.2858 57.5878C25.2852 57.8925 25.1951 58.1903 25.0266 58.444C24.8582 58.6978 24.6188 58.8962 24.3385 59.0145C24.149 59.0981 23.944 59.1406 23.737 59.1392C23.6182 59.1398 23.4997 59.1259 23.3843 59.0976C22.9879 59.001 22.6452 58.7523 22.4301 58.405C22.2767 58.1601 22.1953 57.8769 22.1953 57.5878C22.1953 57.2987 22.2767 57.0154 22.4301 56.7705C22.5355 56.5976 22.6741 56.4473 22.8379 56.3284C23.0017 56.2095 23.1874 56.1244 23.3843 56.078C23.4997 56.0497 23.6182 56.0358 23.737 56.0364C23.944 56.0349 24.149 56.0774 24.3385 56.1611C24.6194 56.2787 24.8592 56.4769 25.0278 56.7308C25.1964 56.9847 25.2861 57.2829 25.2858 57.5878Z" fill="#329A6B"/>
<path fill-rule="evenodd" clip-rule="evenodd" d="M25.2867 63.5094C25.2902 63.8176 25.202 64.12 25.0333 64.3778C24.8646 64.6356 24.623 64.8372 24.3394 64.9569C24.2345 64.9983 24.1256 65.0285 24.0144 65.047C23.9225 65.0575 23.8297 65.0575 23.7378 65.047C23.4616 65.046 23.1907 64.9711 22.9531 64.8299C22.7155 64.6888 22.5199 64.4866 22.3866 64.2443C22.2533 64.002 22.1872 63.7283 22.195 63.4518C22.2027 63.1752 22.2842 62.9058 22.431 62.6714C22.6466 62.3247 22.9891 62.0761 23.3852 61.9788C23.5006 61.9506 23.619 61.9366 23.7378 61.9373C23.9441 61.9369 24.1484 61.9769 24.3394 62.055C24.6241 62.1752 24.8664 62.3778 25.0352 62.637C25.2041 62.8962 25.2916 63.2 25.2867 63.5094Z" fill="#329A6B"/>
</svg>
