<svg width="32" height="36" viewBox="0 0 32 36" fill="none" xmlns="http://www.w3.org/2000/svg">
<path d="M31.7247 26.372C30.8783 28.2369 30.4735 29.0687 29.3817 30.7173C27.8605 33.0179 25.7137 35.8853 23.0578 35.9096C20.6964 35.931 20.0892 34.383 16.8843 34.4013C13.6795 34.4196 13.0109 35.9371 10.6494 35.9157C7.99354 35.8914 5.96023 33.3043 4.43908 31.0006C0.182308 24.565 -0.259317 17.0111 2.36283 12.9979C4.22747 10.1427 7.16856 8.4729 9.93485 8.4729C12.7502 8.4729 14.5228 10.0087 16.8506 10.0087C19.1108 10.0087 20.4878 8.4729 23.7418 8.4729C26.2044 8.4729 28.8112 9.80451 30.6697 12.1082C24.5821 15.4205 25.5727 24.0622 31.7247 26.372Z" fill="#545454"/>
<path d="M21.2721 5.90103C22.4559 4.39268 23.3545 2.25967 23.0264 0.0839844C21.0943 0.215013 18.834 1.43692 17.5122 3.03059C16.3131 4.478 15.3255 6.62016 15.7089 8.70443C17.8219 8.76842 20.0055 7.51603 21.2721 5.90103Z" fill="#545454"/>
</svg>
