<svg width="160" height="52" viewBox="0 0 160 52" fill="none" xmlns="http://www.w3.org/2000/svg">
<path d="M160 44.9732C160 48.8553 156.835 52 152.928 52H7.07213C3.16804 52 0 48.8523 0 44.9732V7.02678C0 3.14773 3.16804 0 7.07213 0H152.928C156.832 0 160 3.14773 160 7.02678V44.9732Z" fill="white"/>
<path d="M41.7247 34.372C40.8783 36.2369 40.4735 37.0687 39.3817 38.7173C37.8605 41.0179 35.7137 43.8853 33.0579 43.9096C30.6964 43.931 30.0892 42.383 26.8843 42.4013C23.6795 42.4196 23.0109 43.9371 20.6494 43.9157C17.9935 43.8914 15.9602 41.3043 14.4391 39.0006C10.1823 32.565 9.74068 25.0111 12.3628 20.9979C14.2275 18.1427 17.1686 16.4729 19.9349 16.4729C22.7502 16.4729 24.5228 18.0087 26.8506 18.0087C29.1108 18.0087 30.4878 16.4729 33.7418 16.4729C36.2044 16.4729 38.8112 17.8045 40.6697 20.1082C34.5821 23.4205 35.5727 32.0622 41.7247 34.372Z" fill="#545454"/>
<path d="M31.2721 13.901C32.4559 12.3927 33.3545 10.2597 33.0264 8.08398C31.0943 8.21501 28.834 9.43692 27.5122 11.0306C26.3131 12.478 25.3255 14.6202 25.7089 16.7044C27.8219 16.7684 30.0055 15.516 31.2721 13.901Z" fill="#545454"/>
<path d="M54.6877 20.9005L48.5908 38.7265H51.3816L53.2003 33.2537H59.1009L60.9716 38.7265H63.8391L57.7177 20.9005H54.6877ZM56.1322 23.8319C56.3377 24.6272 56.5615 25.453 56.8467 26.3458L58.4906 31.072H53.8167L55.436 26.3153C55.6813 25.5444 55.9144 24.7095 56.1322 23.8319Z" fill="#545454"/>
<path d="M71.7307 25.52C69.8814 25.52 68.4002 26.23 67.4157 27.5769L67.3084 25.8034H64.8242L64.8396 26.0289C64.9132 27.132 64.9438 28.3508 64.9438 30.0938V43.8335H67.658V37.4223C68.5014 38.4248 69.8446 39.0068 71.3689 39.0068C72.9544 39.0068 74.4173 38.3882 75.4815 37.2699C76.6714 36.0206 77.297 34.2258 77.297 32.0806C77.297 30.1852 76.7512 28.5459 75.7207 27.3422C74.7117 26.1691 73.2948 25.52 71.7307 25.52ZM71.056 27.7536C73.4758 27.7536 74.5584 29.9811 74.5584 32.1872C74.5584 35.0333 73.1752 36.8037 70.9518 36.8037C69.4337 36.8037 68.1211 35.7768 67.753 34.302C67.6886 34.0734 67.658 33.7718 67.658 33.4274V31.2578C67.658 31.0628 67.7009 30.8221 67.7438 30.5936C67.7561 30.5204 67.7715 30.4473 67.7837 30.3742C68.1885 28.8323 69.5318 27.7536 71.056 27.7536Z" fill="#545454"/>
<path d="M85.7081 25.52C83.8588 25.52 82.3776 26.23 81.3931 27.5769L81.2858 25.8034H78.8047L78.817 26.0289C78.8906 27.135 78.9212 28.3508 78.9212 30.0938V43.8335H81.6354V37.4223C82.4788 38.4248 83.822 39.0068 85.3463 39.0068C86.9318 39.0068 88.3947 38.3882 89.4619 37.2699C90.6488 36.0206 91.2775 34.2258 91.2775 32.0806C91.2775 30.1852 90.7316 28.5459 89.6981 27.3422C88.6891 26.1691 87.2722 25.52 85.7081 25.52ZM85.0334 27.7536C87.4532 27.7536 88.5358 29.9811 88.5358 32.1872C88.5358 35.0333 87.1526 36.8037 84.9292 36.8037C83.4111 36.8037 82.0954 35.7768 81.7305 34.302C81.666 34.0734 81.6354 33.7718 81.6354 33.4274V31.2578C81.6354 31.0598 81.6783 30.8221 81.7213 30.5905C81.7335 30.5174 81.7489 30.4442 81.7611 30.3742C82.1659 28.8323 83.5092 27.7536 85.0334 27.7536Z" fill="#545454"/>
<path d="M103.224 28.4545C100.69 27.4794 99.8776 26.7146 99.8776 25.2977C99.8776 24.1062 100.831 22.9026 102.963 22.9026C104.72 22.9026 105.846 23.509 106.149 23.6979L106.379 23.8381L107.146 21.5862L106.996 21.4978C106.542 21.2327 105.245 20.6172 103.043 20.6172C99.5801 20.6172 97.1635 22.6466 97.1635 25.5536C97.1635 27.8969 98.6785 29.5363 101.929 30.7094C104.233 31.5657 105.091 32.4402 105.091 33.9425C105.091 35.6428 103.769 36.6971 101.641 36.6971C100.255 36.6971 98.8288 36.2949 97.7278 35.594L97.4916 35.4447L96.7617 37.7484L96.8967 37.8368C97.921 38.5163 99.85 39.0099 101.485 39.0099C106.149 39.0099 107.805 36.1821 107.805 33.7627C107.802 31.2671 106.474 29.7282 103.224 28.4545Z" fill="#545454"/>
<path d="M112.688 22.7349L110.026 23.5668V25.8064H108.075V27.9608H110.026V34.564C110.026 36.1607 110.332 37.279 110.964 37.986C111.571 38.6472 112.504 39.0098 113.589 39.0098C114.617 39.0098 115.344 38.8087 115.687 38.6868L115.84 38.632L115.712 36.4715L115.451 36.5508C115.107 36.6544 114.755 36.697 114.187 36.697C113.135 36.697 112.688 36.0358 112.688 34.4848V27.9608H115.963V25.8064H112.688V22.7349Z" fill="#545454"/>
<path d="M122.689 25.52C118.892 25.52 116.239 28.3356 116.239 32.367C116.239 36.2765 118.806 39.0099 122.483 39.0099H122.508C125.615 39.0099 128.957 36.8586 128.957 32.1354C128.957 30.2157 128.359 28.5672 127.228 27.3636C126.09 26.1599 124.52 25.52 122.689 25.52ZM122.612 27.65C125.053 27.65 126.167 30.0146 126.167 32.2147C126.167 34.9175 124.649 36.8799 122.56 36.8799H122.532C120.475 36.8799 118.978 34.951 118.978 32.2908C118.981 29.9841 120.103 27.65 122.612 27.65Z" fill="#545454"/>
<path d="M137.272 25.6479L137.109 25.6083C136.87 25.5504 136.674 25.5229 136.435 25.5229C135.015 25.5229 133.739 26.3548 133.03 27.6956L132.951 25.8094H130.516L130.531 26.0349C130.605 27.1014 130.632 28.302 130.632 29.92L130.608 38.7324H133.322V31.858C133.322 31.4832 133.346 31.1297 133.395 30.8128C133.702 29.1613 134.821 28.0948 136.251 28.0948C136.53 28.0948 136.747 28.1161 136.981 28.1405L137.272 28.1709V25.6479Z" fill="#545454"/>
<path d="M143.375 25.4956C139.762 25.4956 137.238 28.366 137.238 32.4736C137.238 36.4289 139.75 38.9854 143.636 38.9854C145.678 38.9854 147.101 38.5406 147.932 38.1658L148.095 38.0926L147.574 36.0815L147.347 36.1729C146.607 36.4715 145.623 36.7762 143.945 36.7762C142.765 36.7762 140.048 36.3892 139.879 32.8667L148.641 32.8941L148.678 32.7205C148.733 32.4462 148.76 32.0775 148.76 31.596C148.76 28.7805 147.35 25.4956 143.375 25.4956ZM143.194 27.5464C144.022 27.5464 144.691 27.7993 145.188 28.3021C145.97 29.0913 146.105 30.2553 146.123 30.8129H139.931C140.186 29.2558 141.164 27.5464 143.194 27.5464Z" fill="#545454"/>
<path d="M48.591 8.72105C49.3485 8.6205 50.2286 8.54736 51.1947 8.54736C52.9459 8.54736 54.191 8.8978 55.016 9.58646C55.8686 10.2751 56.3593 11.2624 56.3593 12.6275C56.3593 14.0049 55.8686 15.1293 55.0006 15.9063C54.1051 16.6955 52.6484 17.1221 50.8144 17.1221C49.9312 17.1221 49.2197 17.0977 48.5879 17.0215V8.72105H48.591ZM49.8238 16.1958C50.1305 16.2445 50.5783 16.2445 51.0567 16.2445C53.6604 16.2567 55.0743 14.9434 55.0743 12.6641C55.0896 10.6499 53.8291 9.40972 51.253 9.40972C50.6243 9.40972 50.1458 9.46152 49.8238 9.52246V16.1958Z" fill="#545454"/>
<path d="M60.7263 17.186C58.9046 17.186 57.4785 15.9854 57.4785 14.0688C57.4785 12.0393 58.9751 10.851 60.8367 10.851C62.7841 10.851 64.0998 12.1155 64.0998 13.956C64.0998 16.2079 62.3487 17.186 60.7416 17.186H60.7263ZM60.7692 16.3572C61.9438 16.3572 62.8271 15.3669 62.8271 13.9926C62.8271 12.9657 62.2536 11.6767 60.7968 11.6767C59.3554 11.6767 58.7237 12.8773 58.7237 14.0292C58.7237 15.3547 59.564 16.3572 60.7539 16.3572H60.7692Z" fill="#545454"/>
<path d="M66.0504 10.9882L66.9612 14.0567C67.1422 14.7331 67.3262 15.37 67.4519 15.9977H67.4949C67.6482 15.3852 67.8721 14.7331 68.0959 14.0688L69.2031 10.9882H70.2397L71.2885 14.017C71.54 14.7301 71.7363 15.3822 71.8896 15.9947H71.9326C72.046 15.3822 72.227 14.7423 72.4509 14.0292L73.4169 10.9882H74.6344L72.4509 17.0459H71.3315L70.2949 14.1542C70.0557 13.4655 69.8594 12.8652 69.6938 12.1522H69.6662C69.4975 12.8774 69.2889 13.5173 69.0497 14.1664L67.9579 17.0459H66.8385L64.793 10.9882H66.0504Z" fill="#545454"/>
<path d="M75.8638 12.6275C75.8638 11.9876 75.8485 11.4878 75.8086 10.9881H76.9004L76.9709 11.9784H76.9985C77.3359 11.4147 78.1179 10.851 79.2373 10.851C80.1758 10.851 81.6325 11.3507 81.6325 13.4289V17.0459H80.4027V13.5538C80.4027 12.5787 79.9948 11.7529 78.8356 11.7529C78.0382 11.7529 77.4064 12.2649 77.1825 12.8804C77.1273 13.0175 77.0997 13.2186 77.0997 13.3923V17.0489H75.8669V12.6275H75.8638Z" fill="#545454"/>
<path d="M83.6328 8.16028H84.8657V17.0489H83.6328V8.16028Z" fill="#545454"/>
<path d="M89.6677 17.186C87.8491 17.186 86.4199 15.9854 86.4199 14.0688C86.4199 12.0393 87.9165 10.851 89.7812 10.851C91.7255 10.851 93.0412 12.1155 93.0412 13.956C93.0412 16.2079 91.2901 17.186 89.68 17.186H89.6677ZM89.7106 16.3572C90.8852 16.3572 91.7685 15.3669 91.7685 13.9926C91.7685 12.9657 91.195 11.6767 89.7382 11.6767C88.2968 11.6767 87.6651 12.8773 87.6651 14.0292C87.6651 15.3547 88.5054 16.3572 89.6953 16.3572H89.7106Z" fill="#545454"/>
<path d="M99.3712 15.5953C99.3712 16.1194 99.3988 16.6344 99.4693 17.0457H98.3622L98.2487 16.2839H98.2089C97.8439 16.7593 97.1017 17.1859 96.1357 17.1859C94.7648 17.1859 94.0625 16.3236 94.0625 15.446C94.0625 13.9803 95.5192 13.1789 98.1353 13.1941V13.0692C98.1353 12.5694 97.9819 11.6553 96.5957 11.6675C95.9517 11.6675 95.2923 11.829 94.8169 12.1185L94.5379 11.381C95.0991 11.0672 95.9241 10.8539 96.7767 10.8539C98.8621 10.8539 99.3651 12.1185 99.3651 13.3312V15.5953H99.3712ZM98.1659 13.9559C96.8227 13.9315 95.2954 14.1448 95.2954 15.321C95.2954 16.0463 95.8259 16.3723 96.4424 16.3723C97.3379 16.3723 97.9114 15.8726 98.1077 15.3576C98.1506 15.2449 98.1629 15.1199 98.1629 15.0072V13.9559H98.1659Z" fill="#545454"/>
<path d="M107.195 8.16028V15.4826C107.195 16.022 107.21 16.6345 107.25 17.0489H106.143L106.088 15.9976H106.06C105.683 16.6741 104.87 17.186 103.763 17.186C102.126 17.186 100.85 15.9458 100.85 14.1053C100.834 12.0759 102.251 10.8509 103.889 10.8509C104.941 10.8509 105.64 11.2897 105.935 11.7651H105.962V8.16028H107.195ZM105.965 13.4532C105.965 13.3039 105.953 13.1272 105.91 12.9779C105.729 12.2892 105.057 11.7133 104.131 11.7133C102.859 11.7133 102.101 12.7158 102.101 14.0413C102.101 15.2815 102.788 16.2932 104.104 16.2932C104.929 16.2932 105.686 15.7934 105.91 14.9798C105.953 14.8305 105.965 14.6782 105.965 14.5045V13.4532Z" fill="#545454"/>
<path d="M114.967 17.186C113.148 17.186 111.719 15.9854 111.719 14.0688C111.719 12.0393 113.218 10.851 115.08 10.851C117.027 10.851 118.343 12.1155 118.343 13.956C118.343 16.2079 116.592 17.186 114.985 17.186H114.967ZM115.009 16.3572C116.184 16.3572 117.067 15.3669 117.067 13.9926C117.067 12.9657 116.494 11.6767 115.037 11.6767C113.596 11.6767 112.964 12.8773 112.964 14.0292C112.964 15.3547 113.804 16.3572 114.994 16.3572H115.009Z" fill="#545454"/>
<path d="M119.895 12.6275C119.895 11.9876 119.88 11.4878 119.84 10.9881H120.932L121.002 11.9784H121.03C121.367 11.4147 122.149 10.851 123.269 10.851C124.207 10.851 125.664 11.3507 125.664 13.4289V17.0459H124.431V13.5538C124.431 12.5787 124.026 11.7529 122.864 11.7529C122.066 11.7529 121.435 12.2649 121.211 12.8804C121.156 13.0175 121.128 13.2186 121.128 13.3923V17.0489H119.895V12.6275Z" fill="#545454"/>
<path d="M132.116 9.53772V10.9882H133.88V11.8261H132.116V15.0927C132.116 15.8423 132.356 16.2689 133.04 16.2689C133.374 16.2689 133.57 16.2446 133.754 16.1928L133.809 17.0307C133.57 17.1069 133.193 17.18 132.718 17.18C132.144 17.18 131.681 17.0033 131.387 16.7169C131.049 16.3786 130.911 15.8393 130.911 15.1262V11.82H129.862V10.9821H130.911V9.86682L132.116 9.53772Z" fill="#545454"/>
<path d="M135.267 8.16028H136.5V11.9418H136.527C136.723 11.628 137.03 11.3415 137.41 11.1648C137.775 10.9637 138.208 10.8509 138.671 10.8509C139.579 10.8509 141.035 11.3507 141.035 13.441V17.0458H139.803V13.566C139.803 12.5756 139.398 11.762 138.235 11.762C137.438 11.762 136.822 12.2618 136.582 12.8651C136.512 13.0144 136.497 13.179 136.497 13.3923V17.0489H135.264V8.16028H135.267Z" fill="#545454"/>
<path d="M143.736 14.2059C143.764 15.6959 144.815 16.3084 146.045 16.3084C146.929 16.3084 147.474 16.1713 147.922 16.0068L148.146 16.7838C147.711 16.9605 146.956 17.1708 145.877 17.1708C143.803 17.1708 142.543 15.9306 142.543 14.1175C142.543 12.277 143.761 10.8387 145.736 10.8387C147.947 10.8387 148.52 12.5787 148.52 13.6939C148.52 13.9194 148.508 14.0931 148.48 14.218L143.736 14.2059ZM147.336 13.4167C147.349 12.728 147.014 11.6249 145.64 11.6249C144.38 11.6249 143.849 12.6518 143.751 13.4167H147.336Z" fill="#545454"/>
</svg>
