<svg width="160" height="52" viewBox="0 0 160 52" fill="none" xmlns="http://www.w3.org/2000/svg">
<path d="M160 44.9728C160 48.8547 156.834 52 152.927 52H7.07281C3.16572 52 0 48.8547 0 44.9728V7.0272C0 3.1453 3.16572 0 7.07281 0H152.927C156.831 0 160 3.1453 160 7.0272V44.9728Z" fill="white"/>
<path d="M12 9.87402V27.4809V45.0877L29.8744 27.4809L12 9.87402Z" fill="url(#paint0_linear_7_251)"/>
<path d="M34.673 22.7536L27.4594 18.6137L12 9.74658V9.87401L29.8744 27.4808L34.673 22.7536Z" fill="url(#paint1_linear_7_251)"/>
<path d="M12 45.0877V45.2182L27.4594 36.348L34.673 32.2112L29.8744 27.4808L12 45.0877Z" fill="url(#paint2_linear_7_251)"/>
<path d="M34.6736 22.7534L29.875 27.4807L34.6736 32.2111L42.9195 27.4807L34.6736 22.7534Z" fill="url(#paint3_linear_7_251)"/>
<path d="M124.52 34.3652C123.848 34.3652 123.238 34.2409 122.681 33.9953C122.127 33.7498 121.661 33.3706 121.283 32.8609H121.17C121.245 33.4576 121.283 34.0264 121.283 34.561V38.7754H119.722V23.9378H120.992L121.208 25.3395H121.283C121.683 24.7801 122.152 24.3729 122.684 24.1243C123.216 23.8757 123.829 23.7513 124.517 23.7513C125.884 23.7513 126.938 24.2144 127.683 25.1437C128.427 26.073 128.797 27.3753 128.797 29.0505C128.797 30.7319 128.418 32.0404 127.664 32.9697C126.91 33.899 125.862 34.3652 124.52 34.3652ZM124.295 25.0691C123.241 25.0691 122.481 25.3582 122.012 25.9394C121.542 26.5175 121.298 27.4405 121.286 28.7055V29.0505C121.286 30.4895 121.527 31.5182 122.012 32.1398C122.493 32.7583 123.269 33.0691 124.333 33.0691C125.224 33.0691 125.922 32.7117 126.425 31.9938C126.929 31.2789 127.182 30.2906 127.182 29.0318C127.182 27.7545 126.929 26.7754 126.425 26.0917C125.919 25.4079 125.209 25.0691 124.295 25.0691Z" fill="#545454"/>
<path d="M132.413 34.1788H130.852V19.6395H132.413V34.1788Z" fill="#545454"/>
<path d="M141.391 34.1787L141.081 32.721H141.006C140.493 33.3644 139.98 33.7964 139.467 34.0233C138.957 34.2502 138.319 34.3651 137.552 34.3651C136.529 34.3651 135.729 34.1041 135.15 33.5788C134.571 33.0567 134.28 32.3108 134.28 31.3473C134.28 29.2805 135.944 28.1958 139.273 28.0963L141.021 28.0404V27.4063C141.021 26.6014 140.846 26.0077 140.499 25.6254C140.152 25.2432 139.595 25.0505 138.829 25.0505C137.968 25.0505 136.999 25.3115 135.913 25.8368L135.435 24.6495C135.941 24.376 136.498 24.1616 137.105 24.0062C137.709 23.8508 138.316 23.7731 138.926 23.7731C140.155 23.7731 141.065 24.0435 141.657 24.5874C142.248 25.1282 142.545 25.9984 142.545 27.195V34.1849H141.391V34.1787ZM137.862 33.0846C138.835 33.0846 139.595 32.8205 140.152 32.2921C140.706 31.7637 140.984 31.0209 140.984 30.0668V29.1406L139.423 29.2059C138.181 29.2494 137.286 29.4421 136.739 29.7808C136.192 30.1196 135.916 30.648 135.916 31.3659C135.916 31.9254 136.085 32.3543 136.429 32.6464C136.77 32.9386 137.249 33.0846 137.862 33.0846Z" fill="#545454"/>
<path d="M143.452 23.9379H145.126L147.384 29.7778C147.879 31.1111 148.188 32.0746 148.307 32.6651H148.382C148.463 32.3481 148.636 31.8042 148.895 31.0334C149.155 30.2627 150.006 27.8975 151.448 23.9379H153.121L148.692 35.5991C148.254 36.7522 147.741 37.5696 147.153 38.0513C146.568 38.5331 145.848 38.7755 144.994 38.7755C144.519 38.7755 144.047 38.7226 143.584 38.617V37.3738C143.928 37.4484 144.316 37.4857 144.741 37.4857C145.814 37.4857 146.577 36.8889 147.037 35.6923L147.609 34.2347L143.452 23.9379Z" fill="#545454"/>
<path d="M95.6002 24.8889C96.0944 25.2961 97.1298 26.1539 97.1298 27.7825C97.1298 29.3676 96.2258 30.1166 95.3186 30.8252C95.0371 31.1018 94.7149 31.4033 94.7149 31.8757C94.7149 32.345 95.0371 32.603 95.2748 32.7957L96.0506 33.3956C96.9985 34.1881 97.8618 34.9185 97.8618 36.3948C97.8618 38.4088 95.9005 40.4414 92.1936 40.4414C89.0654 40.4414 87.5576 38.9651 87.5576 37.3769C87.5576 36.6061 87.9455 35.5152 89.2187 34.7631C90.5544 33.9488 92.3656 33.8431 93.3354 33.7778C93.0319 33.3924 92.6878 32.9853 92.6878 32.3233C92.6878 31.9597 92.7973 31.7452 92.9037 31.4872C92.6659 31.509 92.4282 31.5308 92.2123 31.5308C89.9288 31.5308 88.6337 29.84 88.6337 28.1679C88.6337 27.1827 89.0873 26.0886 90.0132 25.2961C91.2426 24.2891 92.7097 24.1182 93.8734 24.1182H98.3123L96.9328 24.8889H95.6002ZM94.0674 34.3994C93.8953 34.3777 93.7858 34.3777 93.5731 34.3777C93.3792 34.3777 92.2124 34.4212 91.3083 34.7227C90.8328 34.8936 89.4533 35.4064 89.4533 36.9294C89.4533 38.4492 90.9423 39.5432 93.2478 39.5432C95.3155 39.5432 96.4166 38.5548 96.4166 37.2277C96.4197 36.1337 95.7065 35.5587 94.0674 34.3994ZM94.693 30.3311C95.1872 29.8369 95.231 29.1531 95.231 28.7677C95.231 27.2262 94.3051 24.8268 92.5158 24.8268C91.9558 24.8268 91.3521 25.1034 91.0049 25.5354C90.6389 25.9861 90.5294 26.5642 90.5294 27.1205C90.5294 28.5564 91.3709 30.934 93.2259 30.934C93.767 30.9309 94.3489 30.6729 94.693 30.3311Z" fill="#545454"/>
<path d="M82.0276 34.0575C78.6054 34.0575 76.7754 31.4063 76.7754 29.0101C76.7754 26.2097 79.0777 23.8135 82.3498 23.8135C85.5124 23.8135 87.4925 26.2719 87.4925 28.8609C87.4957 31.3846 85.5374 34.0575 82.0276 34.0575ZM84.7178 32.3263C85.234 31.6425 85.3654 30.7878 85.3654 29.9518C85.3654 28.0683 84.4613 24.4786 81.793 24.4786C81.0829 24.4786 80.3728 24.7583 79.8566 25.2059C79.0183 25.9549 78.865 26.8935 78.865 27.8166C78.865 29.9331 79.9192 33.4172 82.525 33.4172C83.3633 33.4141 84.2236 33.0101 84.7178 32.3263Z" fill="#545454"/>
<path d="M70.3596 34.0575C66.9374 34.0575 65.1074 31.4063 65.1074 29.0101C65.1074 26.2097 67.4098 23.8135 70.6818 23.8135C73.8444 23.8135 75.8246 26.2719 75.8246 28.8609C75.8277 31.3846 73.8694 34.0575 70.3596 34.0575ZM73.053 32.3263C73.5691 31.6425 73.7005 30.7878 73.7005 29.9518C73.7005 28.0683 72.7965 24.4786 70.1281 24.4786C69.418 24.4786 68.708 24.7583 68.1918 25.2059C67.3535 25.9549 67.2002 26.8935 67.2002 27.8166C67.2002 29.9331 68.2544 33.4172 70.8601 33.4172C71.6954 33.4141 72.5556 33.0101 73.053 32.3263Z" fill="#545454"/>
<path d="M63.4646 33.7218L60.3708 34.4304C59.1164 34.6231 57.9902 34.794 56.8015 34.794C50.8267 34.794 48.5557 30.4304 48.5557 27.0116C48.5557 22.8407 51.7808 18.9712 57.2989 18.9712C58.4689 18.9712 59.5919 19.1421 60.6085 19.4219C62.2321 19.8725 62.9891 20.432 63.4646 20.7552L61.669 22.4553L60.912 22.6262L61.4531 21.7653C60.718 21.0567 59.376 19.7451 56.8234 19.7451C53.4043 19.7451 50.8298 22.3247 50.8298 26.0885C50.8298 30.1289 53.7735 33.9362 58.4908 33.9362C59.8765 33.9362 60.5898 33.6565 61.2404 33.3985V29.9393L57.9746 30.1103L59.7045 29.1841H64.2935L63.7304 29.7218C63.5772 29.8523 63.5584 29.8958 63.5146 30.0668C63.4927 30.2595 63.4708 30.8842 63.4708 31.0986V33.7218H63.4646Z" fill="#545454"/>
<path d="M102.439 33.1034C101.726 33.0381 101.576 32.9107 101.576 32.0715V31.8353V19.9006C101.579 19.854 101.582 19.8074 101.588 19.7607C101.676 19.0086 101.892 18.8812 102.564 18.4927H99.4673L97.8438 19.2697H99.4986V19.279V19.2728V31.8353V32.5471C99.4986 32.976 99.4141 33.0412 98.9136 33.6846H102.746L103.546 33.2122C103.177 33.1687 102.808 33.1469 102.439 33.1034Z" fill="#545454"/>
<path d="M111.245 33.3022C111.01 33.4296 110.772 33.5819 110.538 33.6876C109.828 34.0077 109.096 34.0947 108.451 34.0947C107.766 34.0947 106.69 34.0512 105.592 33.2618C104.069 32.1926 103.402 30.3558 103.402 28.7552C103.402 25.4451 106.111 23.8228 108.323 23.8228C109.096 23.8228 109.893 24.0154 110.538 24.4195C111.611 25.1219 111.892 26.0419 112.039 26.5329L106.99 28.5625L105.336 28.6899C105.87 31.4001 107.719 32.9789 109.762 32.9789C110.857 32.9789 111.654 32.5935 112.383 32.233L111.245 33.3022ZM109.227 26.937C109.634 26.7878 109.85 26.6604 109.85 26.362C109.85 25.5073 108.883 24.5252 107.722 24.5252C106.862 24.5252 105.251 25.1872 105.251 27.4933C105.251 27.8569 105.295 28.2392 105.317 28.6246L109.227 26.937Z" fill="#545454"/>
<path d="M113.321 23.9657V25.3736H113.149V23.9657H112.68V23.8196H113.79V23.9657H113.321Z" fill="#545454"/>
<path d="M115.254 25.3768V23.9533H115.245L114.807 25.3768H114.672L114.231 23.9533H114.225V25.3768H114.068V23.8228H114.337L114.735 25.0784H114.741L115.132 23.8228H115.404V25.3768H115.254Z" fill="#545454"/>
<path d="M52.8504 14.7878H51.7743C51.7743 14.6417 51.6711 14.2252 51.4678 13.5384H49.9162C49.7066 14.2128 49.6002 14.6293 49.6002 14.7878H48.5898C48.5898 14.7008 48.8526 13.989 49.375 12.6495C49.8974 11.313 50.1602 10.5764 50.1602 10.4397H51.4302C51.4302 10.5671 51.668 11.2913 52.1403 12.6184C52.6158 13.9424 52.8504 14.6666 52.8504 14.7878ZM51.2988 12.9012C50.9172 11.7513 50.7233 11.1328 50.7233 11.0395H50.6701C50.6701 11.1266 50.473 11.7482 50.0757 12.9012H51.2988Z" fill="#545454"/>
<path d="M57.1865 14.788H56.3575C56.3575 14.6979 56.0509 14.2162 55.4347 13.3428C54.7903 12.4228 54.4212 11.795 54.3336 11.4563H54.2804C54.3367 11.9442 54.3649 12.3856 54.3649 12.7772C54.3649 13.3273 54.3805 13.9955 54.4118 14.788H53.5859C53.6203 14.0981 53.636 13.3397 53.636 12.513C53.636 11.7018 53.6203 11.0087 53.5859 10.4399H54.5838C54.5838 10.558 54.8591 11.0274 55.4128 11.851C56.0009 12.7243 56.3387 13.318 56.4263 13.6319H56.4764C56.4232 13.1346 56.395 12.6901 56.395 12.2954C56.395 11.6925 56.3794 11.074 56.3481 10.4399H57.1896C57.1583 10.9932 57.1427 11.6831 57.1427 12.513C57.1395 13.349 57.1552 14.1074 57.1865 14.788Z" fill="#545454"/>
<path d="M62.0569 12.4631C62.0569 13.094 61.8535 13.6473 61.4438 14.1197C61.0371 14.5921 60.4646 14.8283 59.7295 14.8283C59.3979 14.8283 58.9412 14.8159 58.3594 14.7879C58.3875 14.1166 58.4032 13.3582 58.4032 12.5128C58.4032 11.7016 58.3875 11.0117 58.3594 10.4398H58.9475C59.0444 10.4398 59.1883 10.4367 59.3792 10.4305C59.57 10.4243 59.6951 10.4211 59.7514 10.4211C60.5585 10.4211 61.1466 10.6201 61.5095 11.021C61.8723 11.4219 62.0569 11.9006 62.0569 12.4631ZM61.1372 12.6061C61.1372 12.1772 61.0121 11.8197 60.7618 11.5245C60.5116 11.2323 60.1268 11.0863 59.6138 11.0863C59.5168 11.0863 59.3854 11.0956 59.2165 11.1173C59.2384 11.5618 59.2509 12.028 59.2509 12.5128C59.2509 13.0443 59.2634 13.5727 59.2853 14.0948C59.4323 14.1228 59.5762 14.1383 59.7233 14.1383C60.205 14.1383 60.5616 13.9891 60.7931 13.6939C61.0215 13.3955 61.1372 13.035 61.1372 12.6061Z" fill="#545454"/>
<path d="M66.545 14.788H65.5502C65.2906 13.9985 65.0904 13.5137 64.9528 13.3303C64.8151 13.1469 64.5899 13.0537 64.2802 13.0537C64.1488 13.0537 64.0268 13.0537 63.9079 13.0568C63.9079 13.6287 63.9173 14.2068 63.9392 14.7911H63.0039C63.0321 14.1197 63.0477 13.3614 63.0477 12.516C63.0477 11.7048 63.0321 11.0148 63.0039 10.443H63.5857C63.6514 10.443 63.7922 10.4399 64.008 10.4336C64.2208 10.4274 64.421 10.4243 64.6024 10.4243C65.6316 10.4243 66.1446 10.7724 66.1446 11.4717C66.1446 12.0249 65.8505 12.4134 65.2656 12.631V12.6807C65.4908 12.7429 65.691 12.9169 65.8599 13.206C66.0257 13.4919 66.2572 14.0172 66.545 14.788ZM65.2843 11.7141C65.2843 11.2728 64.9966 11.049 64.4241 11.049C64.2145 11.049 64.0268 11.0646 63.8673 11.0956C63.8923 11.4406 63.9048 11.8913 63.9048 12.4445C64.0268 12.4476 64.1332 12.4507 64.2176 12.4507C64.9277 12.4538 65.2843 12.2083 65.2843 11.7141Z" fill="#545454"/>
<path d="M71.3633 12.5315C71.3633 13.2152 71.1537 13.7809 70.7314 14.2316C70.3091 14.6822 69.7899 14.906 69.1674 14.906C68.5761 14.906 68.0819 14.7009 67.6815 14.2875C67.2842 13.8741 67.084 13.3489 67.084 12.7148C67.084 12.0311 67.2936 11.4654 67.7159 11.0148C68.1382 10.5641 68.6575 10.3403 69.28 10.3403C69.8712 10.3403 70.3654 10.5455 70.7659 10.9588C71.1631 11.3691 71.3633 11.8943 71.3633 12.5315ZM70.4374 12.6309C70.4374 12.1647 70.3185 11.7887 70.0777 11.4996C69.8368 11.2106 69.5427 11.0645 69.1892 11.0645C68.8608 11.0645 68.5855 11.2106 68.3572 11.5027C68.1288 11.7949 68.0131 12.1616 68.0131 12.6092C68.0131 13.0723 68.1319 13.4483 68.3728 13.7405C68.6137 14.0295 68.9077 14.1756 69.2581 14.1756C69.5865 14.1756 69.8618 14.0295 70.0902 13.7374C70.3216 13.439 70.4374 13.0723 70.4374 12.6309Z" fill="#545454"/>
<path d="M73.2615 14.788H72.3105C72.3387 14.0981 72.3543 13.3397 72.3543 12.513C72.3543 11.7018 72.3387 11.0087 72.3105 10.4399H73.2615C73.2334 10.9994 73.2177 11.6925 73.2177 12.513C73.2177 13.3521 73.2334 14.1105 73.2615 14.788Z" fill="#545454"/>
<path d="M78.1321 12.4631C78.1321 13.094 77.9287 13.6473 77.519 14.1197C77.1123 14.5921 76.5398 14.8283 75.8047 14.8283C75.4731 14.8283 75.0164 14.8159 74.4346 14.7879C74.4627 14.1166 74.4784 13.3582 74.4784 12.5128C74.4784 11.7016 74.4627 11.0117 74.4346 10.4398H75.0227C75.1196 10.4398 75.2635 10.4367 75.4544 10.4305C75.6452 10.4243 75.7703 10.4211 75.8266 10.4211C76.6337 10.4211 77.2218 10.6201 77.5846 11.021C77.9506 11.4219 78.1321 11.9006 78.1321 12.4631ZM77.2155 12.6061C77.2155 12.1772 77.0904 11.8197 76.8401 11.5245C76.5899 11.2323 76.2051 11.0863 75.6921 11.0863C75.5951 11.0863 75.4637 11.0956 75.2948 11.1173C75.3167 11.5618 75.3292 12.028 75.3292 12.5128C75.3292 13.0443 75.3417 13.5727 75.3636 14.0948C75.5107 14.1228 75.6546 14.1383 75.8016 14.1383C76.2833 14.1383 76.6399 13.9891 76.8714 13.6939C77.0998 13.3955 77.2155 13.035 77.2155 12.6061Z" fill="#545454"/>
<path d="M84.5946 14.788H83.5185C83.5185 14.642 83.4152 14.2255 83.2119 13.5386H81.6603C81.4507 14.2131 81.3444 14.6295 81.3444 14.788H80.334C80.334 14.701 80.5968 13.9893 81.1192 12.6497C81.6416 11.3133 81.9043 10.5767 81.9043 10.4399H83.1744C83.1744 10.5674 83.4121 11.2915 83.8845 12.6187C84.3568 13.9427 84.5946 14.6668 84.5946 14.788ZM83.043 12.9015C82.6613 11.7515 82.4674 11.133 82.4674 11.0398H82.4142C82.4142 11.1268 82.2171 11.7484 81.8199 12.9015H83.043Z" fill="#545454"/>
<path d="M88.5142 11.5773C88.5142 12.1087 88.314 12.5034 87.9167 12.7552C87.5194 13.01 87.0314 13.1344 86.4527 13.1344C86.3464 13.1344 86.2713 13.1313 86.2275 13.1281C86.2275 13.5477 86.24 14.0978 86.265 14.7847H85.3203C85.3485 14.1414 85.3641 13.383 85.3641 12.5097C85.3641 11.7078 85.3485 11.0178 85.3203 10.4366H85.9053C85.9866 10.4366 86.1461 10.4335 86.3839 10.4273C86.6185 10.4211 86.8218 10.418 86.997 10.418C87.4224 10.418 87.7822 10.5143 88.0762 10.7039C88.3672 10.8966 88.5142 11.1888 88.5142 11.5773ZM87.6477 11.7606C87.6477 11.2851 87.3286 11.0458 86.6936 11.0458C86.534 11.0458 86.3651 11.0613 86.1899 11.0955C86.215 11.5151 86.2275 11.9937 86.2275 12.5252C86.2838 12.5283 86.3495 12.5314 86.4214 12.5314C87.2379 12.5314 87.6477 12.2766 87.6477 11.7606Z" fill="#545454"/>
<path d="M92.5435 11.5773C92.5435 12.1087 92.3433 12.5034 91.946 12.7552C91.5487 13.01 91.0607 13.1344 90.482 13.1344C90.3756 13.1344 90.3006 13.1313 90.2568 13.1281C90.2568 13.5477 90.2693 14.0978 90.2943 14.7847H89.3496C89.3778 14.1414 89.3934 13.383 89.3934 12.5097C89.3934 11.7078 89.3778 11.0178 89.3496 10.4366H89.9346C90.0159 10.4366 90.1754 10.4335 90.4132 10.4273C90.6478 10.4211 90.8511 10.418 91.0263 10.418C91.4517 10.418 91.8115 10.5143 92.1055 10.7039C92.3996 10.8966 92.5435 11.1888 92.5435 11.5773ZM91.677 11.7606C91.677 11.2851 91.3579 11.0458 90.7229 11.0458C90.5633 11.0458 90.3944 11.0613 90.2192 11.0955C90.2443 11.5151 90.2568 11.9937 90.2568 12.5252C90.3131 12.5283 90.3788 12.5314 90.4507 12.5314C91.2703 12.5314 91.677 12.2766 91.677 11.7606Z" fill="#545454"/>
<path d="M99.1348 12.5315C99.1348 13.2152 98.9252 13.7809 98.5029 14.2316C98.0806 14.6822 97.5613 14.906 96.9388 14.906C96.3476 14.906 95.8534 14.7009 95.453 14.2875C95.0557 13.8741 94.8555 13.3489 94.8555 12.7148C94.8555 12.0311 95.0651 11.4654 95.4874 11.0148C95.9097 10.5641 96.4289 10.3403 97.0514 10.3403C97.6427 10.3403 98.1369 10.5455 98.5373 10.9588C98.9346 11.3691 99.1348 11.8943 99.1348 12.5315ZM98.2057 12.6309C98.2057 12.1647 98.0869 11.7887 97.846 11.4996C97.6051 11.2106 97.3111 11.0645 96.9576 11.0645C96.6291 11.0645 96.3539 11.2106 96.1255 11.5027C95.8972 11.7949 95.7814 12.1616 95.7814 12.6092C95.7814 13.0723 95.9003 13.4483 96.1443 13.7405C96.3851 14.0295 96.6792 14.1756 97.0295 14.1756C97.358 14.1756 97.6333 14.0295 97.8616 13.7374C98.0931 13.439 98.2057 13.0723 98.2057 12.6309Z" fill="#545454"/>
<path d="M103.689 14.7878H102.86C102.86 14.6977 102.554 14.2159 101.938 13.3426C101.293 12.4226 100.924 11.7948 100.837 11.456H100.783C100.84 11.944 100.868 12.3853 100.868 12.7769C100.868 13.327 100.883 13.9953 100.915 14.7878H100.089C100.123 14.0978 100.139 13.3395 100.139 12.5127C100.139 11.7015 100.123 11.0085 100.089 10.4397H101.087C101.087 10.5578 101.362 11.0271 101.916 11.8507C102.504 12.7241 102.842 13.3177 102.929 13.6316H102.979C102.926 13.1343 102.898 12.6899 102.898 12.2952C102.898 11.6922 102.882 11.0737 102.851 10.4397H103.693C103.661 10.9929 103.646 11.6829 103.646 12.5127C103.642 13.3488 103.658 14.1071 103.689 14.7878Z" fill="#545454"/>
<defs>
<linearGradient id="paint0_linear_7_251" x1="20.9377" y1="9.87433" x2="20.9377" y2="45.0892" gradientUnits="userSpaceOnUse">
<stop stop-color="#257CB0"/>
<stop offset="0.2863" stop-color="#4A93B5"/>
<stop offset="0.767" stop-color="#78BCBB"/>
<stop offset="1" stop-color="#89CFBD"/>
</linearGradient>
<linearGradient id="paint1_linear_7_251" x1="12.0015" y1="18.6141" x2="34.6744" y2="18.6141" gradientUnits="userSpaceOnUse">
<stop stop-color="#52C1AD"/>
<stop offset="1" stop-color="#DEE89A"/>
</linearGradient>
<linearGradient id="paint2_linear_7_251" x1="23.3378" y1="27.482" x2="23.3378" y2="45.2169" gradientUnits="userSpaceOnUse">
<stop stop-color="#EC413D"/>
<stop offset="0.1668" stop-color="#DA4452"/>
<stop offset="0.5748" stop-color="#B0487A"/>
<stop offset="0.8619" stop-color="#954A92"/>
<stop offset="1" stop-color="#8A4A9D"/>
</linearGradient>
<linearGradient id="paint3_linear_7_251" x1="36.397" y1="22.7525" x2="36.397" y2="32.2107" gradientUnits="userSpaceOnUse">
<stop stop-color="#F58879"/>
<stop offset="0.1194" stop-color="#F69079"/>
<stop offset="0.7128" stop-color="#FCB877"/>
<stop offset="1" stop-color="#FEC874"/>
</linearGradient>
</defs>
</svg>
