<svg width="56" height="63" viewBox="0 0 56 63" fill="none" xmlns="http://www.w3.org/2000/svg">
<g clip-path="url(#clip0_7_163)">
<path d="M24.9069 36.7149C24.7916 36.7153 24.6774 36.693 24.5709 36.6492C24.4643 36.6054 24.3675 36.5411 24.286 36.4599L17.9726 30.1707C17.8127 30.0062 17.7239 29.7857 17.7256 29.5566C17.7273 29.3276 17.8192 29.1084 17.9815 28.9462C18.1439 28.784 18.3637 28.6918 18.5936 28.6895C18.8235 28.6872 19.0452 28.7749 19.2108 28.9338L25.5242 35.223C25.6459 35.3453 25.7286 35.5008 25.7619 35.6699C25.7952 35.8389 25.7775 36.014 25.7112 36.1731C25.6448 36.3322 25.5327 36.4682 25.389 36.564C25.2452 36.6597 25.0763 36.711 24.9034 36.7114L24.9069 36.7149Z" fill="#329A6B"/>
<path d="M24.9136 36.7148C24.7984 36.7152 24.6842 36.6929 24.5776 36.6491C24.4711 36.6053 24.3743 36.541 24.2928 36.4598C24.1296 36.295 24.0381 36.0728 24.0381 35.8413C24.0381 35.6098 24.1296 35.3876 24.2928 35.2229L36.8951 22.669C36.9766 22.5878 37.0734 22.5234 37.1799 22.4794C37.2864 22.4355 37.4006 22.4128 37.5159 22.4128C37.6312 22.4128 37.7454 22.4355 37.8519 22.4794C37.9584 22.5234 38.0552 22.5878 38.1367 22.669C38.2183 22.7502 38.2829 22.8466 38.327 22.9527C38.3712 23.0589 38.3939 23.1726 38.3939 23.2874C38.3939 23.4023 38.3712 23.516 38.327 23.6221C38.2829 23.7282 38.2183 23.8247 38.1367 23.9059L25.552 36.4598C25.4685 36.5431 25.3688 36.6087 25.2591 36.6525C25.1494 36.6964 25.0318 36.7176 24.9136 36.7148Z" fill="#329A6B"/>
<path d="M28.0985 63.0001C27.6333 63.003 27.1757 62.8824 26.7727 62.6507C22.8444 60.3621 9.65635 51.8193 4.67576 38.1474C4.18823 37.1516 -1.70429 24.5872 0.466821 5.85601C0.508991 5.46988 0.636905 5.09795 0.841297 4.76719C1.04569 4.43643 1.32143 4.15514 1.64851 3.94372C1.97559 3.73231 2.34581 3.59605 2.73231 3.54487C3.11881 3.49369 3.51191 3.52885 3.88308 3.64781C7.74127 4.89865 15.8645 6.12854 26.8358 0.314558C27.2328 0.101825 27.6779 -0.00601231 28.1286 0.00132772C28.5793 0.00866775 29.0205 0.130939 29.4103 0.356484C32.3005 2.08251 42.4686 7.42482 51.9597 3.77011C52.3341 3.62512 52.7368 3.56766 53.1369 3.60219C53.5371 3.63672 53.9239 3.76231 54.2676 3.96927C54.6116 4.1727 54.9036 4.45266 55.1208 4.78726C55.3381 5.12186 55.4746 5.502 55.5198 5.89793C56.3055 12.4876 57.1823 29.4648 48.3506 44.8349C48.1576 45.1843 43.2507 53.9996 29.4734 62.5913C29.0626 62.8532 28.5862 62.9949 28.0985 63.0001ZM3.10442 5.24806C2.94014 5.24808 2.77935 5.29541 2.64144 5.38433C2.52904 5.45533 2.43411 5.5506 2.36368 5.6631C2.29325 5.77559 2.24912 5.90242 2.23457 6.0342C0.0845011 24.6012 6.23658 37.2704 6.29621 37.3962C6.312 37.4252 6.32492 37.4556 6.33478 37.487C11.0944 50.6489 23.872 58.9052 27.6776 61.1203C27.8122 61.2025 27.967 61.246 28.1248 61.246C28.2827 61.246 28.4374 61.2025 28.572 61.1203C41.9249 52.7942 46.8108 44.0802 46.8459 43.9998C55.4286 29.0665 54.5623 12.554 53.8082 6.12155C53.7925 5.9911 53.7471 5.86595 53.6754 5.75571C53.6036 5.64548 53.5075 5.55308 53.3943 5.48565C53.2789 5.41591 53.1489 5.37364 53.0145 5.36213C52.88 5.35062 52.7448 5.37016 52.6191 5.41926C50.1922 6.33843 47.6149 6.8005 45.0185 6.78192C37.502 6.78192 30.8378 3.24601 28.5335 1.89035C28.4056 1.8149 28.2604 1.77336 28.1118 1.76969C27.9632 1.76602 27.8161 1.80034 27.6846 1.86938C16.1416 7.98735 7.49575 6.65962 3.36748 5.32492C3.2846 5.28515 3.19574 5.25919 3.10442 5.24806Z" fill="#224086"/>
<path d="M28.0768 55.3866C27.6793 55.3871 27.2885 55.2835 26.9439 55.0861C23.8363 53.3181 13.3876 46.7215 9.44171 36.1242C9.01731 35.2717 4.39448 25.5654 6.10612 11.1458C6.14648 10.8174 6.25916 10.5019 6.43609 10.222C6.61301 9.94199 6.84983 9.7044 7.12961 9.52616C7.4094 9.34792 7.72525 9.23343 8.0546 9.19088C8.38395 9.14832 8.71867 9.17874 9.03484 9.27998C12.0583 10.2338 18.4103 11.1702 27.0105 6.7189C27.3522 6.54516 27.732 6.45925 28.1155 6.46901C28.499 6.47877 28.8739 6.58389 29.2062 6.7748C31.4685 8.09203 39.4304 12.18 46.8452 9.39179C47.1695 9.26733 47.5182 9.21897 47.8644 9.25048C48.2105 9.28199 48.5446 9.39252 48.8409 9.57348C49.1288 9.7459 49.3733 9.98162 49.5556 10.2626C49.738 10.5436 49.8535 10.8624 49.8932 11.1947C50.5175 16.2889 51.212 29.4193 44.2111 41.3128C44.0603 41.5853 40.167 48.4161 29.2553 55.0547C28.9012 55.2725 28.493 55.3874 28.0768 55.3866ZM8.36492 10.9187C8.26533 10.9198 8.16808 10.9488 8.08433 11.0025C8.02398 11.041 7.97289 11.0923 7.9347 11.1527C7.8965 11.2131 7.87215 11.2811 7.86335 11.3519C6.17276 25.6178 10.9955 35.2892 11.0446 35.3835C11.0616 35.4136 11.0756 35.4452 11.0867 35.4779C14.8151 45.5475 24.8464 51.8751 27.8348 53.5732C27.9153 53.6195 28.0066 53.6439 28.0996 53.6439C28.1926 53.6439 28.2839 53.6195 28.3644 53.5732C38.8447 47.1932 42.6748 40.5197 42.7099 40.4533C49.4512 29.0035 48.7778 16.3448 48.1745 11.4113C48.1676 11.3395 48.1437 11.2704 48.1046 11.2096C48.0656 11.1488 48.0126 11.0982 47.95 11.0619C47.8803 11.0192 47.8015 10.9932 47.72 10.9859C47.6384 10.9787 47.5563 10.9903 47.48 11.02C39.3392 14.0807 30.7705 9.69227 28.3399 8.27721C28.2624 8.235 28.1756 8.21289 28.0873 8.21289C27.9991 8.21289 27.9122 8.235 27.8348 8.27721C18.6768 13.0185 11.8057 11.9878 8.52276 10.9501C8.47208 10.9316 8.41884 10.921 8.36492 10.9187Z" fill="#224086"/>
</g>
<defs>
<clipPath id="clip0_7_163">
<rect width="56" height="63" fill="white"/>
</clipPath>
</defs>
</svg>
