<svg width="54" height="71" viewBox="0 0 54 71" fill="none" xmlns="http://www.w3.org/2000/svg">
<path d="M28.1104 2.56522C25.274 3.73758 21.0176 1.87744 21.0176 1.87744C21.1965 3.6312 21.8182 5.30837 22.8226 6.74663C22.9149 6.87428 23.0112 7.00455 23.1112 7.13741C23.2757 7.3452 23.4673 7.52926 23.6808 7.68451C25.8782 9.29064 30.023 7.68451 30.023 7.68451L30.6041 6.90294L33.5559 2.94038C32.7312 2.47511 31.8156 2.20026 30.8744 2.13542C29.9331 2.07057 28.9894 2.21733 28.1104 2.56522ZM29.542 6.70364H24.0232C23.9645 6.6498 23.9105 6.59097 23.8616 6.52779C23.1362 5.58253 22.5978 4.50367 22.276 3.3507C23.9116 3.83137 26.4555 4.30813 28.4759 3.46794C29.6164 3.00181 30.8819 2.95755 32.0512 3.34289L29.542 6.70364Z" fill="white"/>
<path d="M34.5027 2.76491C34.4782 2.63069 34.4261 2.50322 34.3499 2.39079C34.2736 2.27835 34.1749 2.18347 34.0602 2.1123C33.107 1.56449 32.0455 1.23953 30.953 1.16111C29.8604 1.08269 28.7645 1.25278 27.7449 1.65899C25.736 2.49527 22.4841 1.45187 21.3988 0.979023C21.2482 0.913431 21.0835 0.887977 20.9206 0.905074C20.7576 0.922172 20.6016 0.981254 20.4674 1.07672C20.3327 1.17176 20.2245 1.30044 20.153 1.45034C20.0816 1.60025 20.0493 1.76632 20.0594 1.93254C20.2511 3.92743 20.9676 5.83328 22.1338 7.45043L22.3571 7.74351C22.4945 7.91792 22.6464 8.08004 22.8111 8.22809C23.0525 8.44546 23.3202 8.63063 23.6078 8.7791C23.6347 8.74002 23.654 8.69703 23.6771 8.65795H29.4497C29.4844 8.72438 29.5229 8.79082 29.5614 8.85725C30.0193 8.72829 30.331 8.61106 30.3656 8.59543C30.4084 8.57988 30.4497 8.56025 30.4888 8.53681C30.6058 8.47008 30.708 8.37963 30.789 8.27107L31.1738 7.76696L34.3296 3.53085C34.4091 3.42231 34.4656 3.29819 34.4954 3.16634C34.5252 3.03449 34.5277 2.8978 34.5027 2.76491ZM29.5421 6.70403L29.4266 6.86034C28.1182 7.30974 25.2741 7.935 24.0388 6.70403C23.9801 6.65019 23.926 6.59136 23.8772 6.52817C23.1518 5.58291 22.6133 4.50406 22.2916 3.35109C23.9272 3.83176 26.471 4.30851 28.4915 3.46832C29.6319 3.0022 30.8974 2.95794 32.0667 3.34327L29.5421 6.70403Z" fill="#00388C"/>
<path d="M30.2798 24.2894H28.7635C28.9943 24.7122 29.1469 25.1745 29.2137 25.6532H30.2798C30.5349 25.6532 30.7797 25.7561 30.9601 25.9393C31.1405 26.1226 31.2419 26.3711 31.2419 26.6302C31.2419 26.8893 31.1405 27.1378 30.9601 27.321C30.7797 27.5042 30.5349 27.6071 30.2798 27.6071H29.1676C29.0407 28.365 28.6601 29.0552 28.09 29.561C27.3205 30.173 26.3734 30.5096 25.3961 30.5185L29.0136 34.5397C29.1028 34.6338 29.1725 34.7452 29.2185 34.8672C29.2646 34.9892 29.2861 35.1193 29.2817 35.2499C29.2774 35.3805 29.2472 35.5088 29.1931 35.6274C29.1391 35.7459 29.0621 35.8522 28.9669 35.9401C28.8716 36.0279 28.7601 36.0954 28.6387 36.1387C28.5173 36.182 28.3886 36.2 28.2602 36.1919C28.1317 36.1837 28.0063 36.1495 27.8911 36.0913C27.7759 36.033 27.6734 35.9519 27.5897 35.8527L22.6983 30.4169C22.6667 30.3818 22.6384 30.3439 22.6136 30.3035C22.4134 30.2206 22.2468 30.071 22.1412 29.8793C22.0357 29.6876 21.9973 29.4651 22.0325 29.2484C22.0522 29.1217 22.0963 29.0001 22.1623 28.8906C22.2283 28.7811 22.3148 28.6859 22.417 28.6105C22.5192 28.535 22.6351 28.4807 22.758 28.4507C22.8808 28.4207 23.0083 28.4155 23.1331 28.4356C25.4422 28.8029 26.4044 28.4356 26.82 28.0839C26.9662 27.9532 27.0808 27.7901 27.1549 27.6071H22.5559C22.3007 27.6071 22.0561 27.5042 21.8756 27.321C21.6952 27.1378 21.5938 26.8893 21.5938 26.6302C21.5938 26.3711 21.6952 26.1226 21.8756 25.9393C22.0561 25.7561 22.3007 25.6532 22.5559 25.6532H27.2357C27.1525 25.3222 26.9679 25.0265 26.7084 24.8091C26.3559 24.5415 25.9456 24.3633 25.5116 24.2894H22.5559C22.3007 24.2894 22.0561 24.1864 21.8756 24.0032C21.6952 23.82 21.5938 23.5715 21.5938 23.3124C21.5938 23.0533 21.6952 22.8048 21.8756 22.6216C22.0561 22.4384 22.3007 22.3354 22.5559 22.3354H22.8946C23.8313 22.1805 24.7865 22.1805 25.7232 22.3354H30.2643C30.5195 22.3354 30.7643 22.4384 30.9447 22.6216C31.1251 22.8048 31.2265 23.0533 31.2265 23.3124C31.2265 23.5688 31.1272 23.815 30.9501 23.9977C30.773 24.1805 30.5322 24.2853 30.2798 24.2894Z" fill="white"/>
<path d="M26.5476 17.1265C23.56 17.1296 20.6956 18.3361 18.5831 20.4812C16.4705 22.6264 15.2824 25.535 15.2793 28.5687C15.2834 31.602 16.4719 34.51 18.5842 36.6549C20.6965 38.7999 23.5603 40.0067 26.5476 40.0108C29.5355 40.0067 32.3999 38.7993 34.5124 36.6536C36.6248 34.5078 37.8128 31.5988 37.8159 28.5647C37.8118 25.5317 36.6232 22.6242 34.5108 20.4798C32.3983 18.3355 29.5345 17.1296 26.5476 17.1265ZM26.5476 38.0569C24.0697 38.0538 21.6942 37.0526 19.9424 35.2731C18.1906 33.4935 17.2056 31.0809 17.2035 28.5647C17.2066 26.0496 18.1922 23.6384 19.944 21.8603C21.6958 20.0822 24.0707 19.0825 26.5476 19.0804C29.0252 19.0825 31.4006 20.0828 33.1525 21.8617C34.9045 23.6407 35.8896 26.0528 35.8917 28.5687C35.8886 31.0841 34.9031 33.4957 33.1514 35.2744C31.3997 37.0532 29.0249 38.0538 26.5476 38.0569Z" fill="white"/>
<path d="M44.6896 31.8629C42.8461 20.327 36.1036 18.6583 30.4887 8.53697C30.3309 8.25951 30.177 7.97424 30.023 7.68115H23.0958C22.9996 7.86482 22.9034 8.04849 22.8033 8.22825C17.1499 18.6231 10.2919 20.2136 8.42929 31.8629C6.53585 43.7155 19.9439 43.7155 19.9439 43.7155H33.1672C33.1672 43.7155 46.583 43.7155 44.6896 31.8629ZM42.2226 39.112C39.2478 42.6799 33.2365 42.7463 33.1749 42.7463H19.9516C19.8901 42.7463 13.9057 42.7033 10.9078 39.1276C9.42996 37.3613 8.91811 34.9736 9.36838 32.0271C10.4537 25.2352 13.3323 21.98 16.6805 18.205C18.8702 15.7235 21.3409 12.9255 23.6077 8.78707C23.6346 8.748 23.6538 8.70501 23.6769 8.66593H29.4496C29.4843 8.73237 29.5228 8.7988 29.5612 8.86523C31.8126 12.9607 34.264 15.7391 36.4422 18.205C39.7789 21.98 42.6537 25.2391 43.7543 32.0271C44.2084 34.9619 43.7004 37.3496 42.2226 39.112Z" fill="white"/>
<path d="M45.6393 31.7061C44.4847 24.3515 41.406 20.893 37.877 16.8914C35.6372 14.3591 33.3243 11.7447 31.1653 7.76655L30.8728 7.21945C30.8054 7.09624 30.7137 6.98847 30.6034 6.90291C30.4366 6.77336 30.2323 6.70331 30.0223 6.70361H23.0951C22.9999 6.70392 22.9052 6.7184 22.8141 6.7466C22.6938 6.78369 22.5819 6.84456 22.4848 6.9257C22.3877 7.00685 22.3074 7.10668 22.2484 7.21945L22.1253 7.45001C19.9124 11.6041 17.5378 14.2927 15.2442 16.8914C11.7074 20.893 8.65562 24.3515 7.47799 31.7061C6.91612 35.2427 7.57039 38.1618 9.43304 40.3854C13.0006 44.641 19.6584 44.684 19.9432 44.684H33.1665C33.4512 44.684 40.0936 44.6332 43.6765 40.3854C45.1292 38.6148 45.8945 36.366 45.8279 34.0625C45.8273 33.2732 45.7641 32.4851 45.6393 31.7061ZM33.1742 42.7457H19.9509C19.8893 42.7457 13.905 42.7027 10.907 39.1271C9.42922 37.3607 8.91738 34.973 9.36765 32.0265C10.4529 25.2346 13.3316 21.9794 16.6797 18.2044C18.8695 15.7229 21.3402 12.9249 23.6069 8.7865C23.6339 8.74742 23.6531 8.70443 23.6762 8.66536H29.4489C29.4835 8.73179 29.522 8.79822 29.5605 8.86466C31.8118 12.9601 34.2633 15.7386 36.4415 18.2044C39.7781 21.9794 42.6529 25.2386 43.7536 32.0265C44.2231 34.9691 43.7151 37.3568 42.2373 39.1192C39.247 42.6793 33.2357 42.7457 33.1742 42.7457Z" fill="#00388C"/>
<path d="M30.2798 24.2894H28.7635C28.9943 24.7122 29.1469 25.1745 29.2137 25.6532H30.2798C30.5349 25.6532 30.7797 25.7561 30.9601 25.9393C31.1405 26.1226 31.2419 26.3711 31.2419 26.6302C31.2419 26.8893 31.1405 27.1378 30.9601 27.321C30.7797 27.5042 30.5349 27.6071 30.2798 27.6071H29.1676C29.0407 28.365 28.6601 29.0552 28.09 29.561C27.3205 30.173 26.3734 30.5096 25.3961 30.5185L29.0136 34.5397C29.1028 34.6338 29.1725 34.7452 29.2185 34.8672C29.2646 34.9892 29.2861 35.1193 29.2817 35.2499C29.2774 35.3805 29.2472 35.5088 29.1931 35.6274C29.1391 35.7459 29.0621 35.8522 28.9669 35.9401C28.8716 36.0279 28.7601 36.0954 28.6387 36.1387C28.5173 36.182 28.3886 36.2 28.2602 36.1919C28.1317 36.1837 28.0063 36.1495 27.8911 36.0913C27.7759 36.033 27.6734 35.9519 27.5897 35.8527L22.6983 30.4169C22.6667 30.3818 22.6384 30.3439 22.6136 30.3035C22.4134 30.2206 22.2468 30.071 22.1412 29.8793C22.0357 29.6876 21.9973 29.4651 22.0325 29.2484C22.0522 29.1217 22.0963 29.0001 22.1623 28.8906C22.2283 28.7811 22.3148 28.6859 22.417 28.6105C22.5192 28.535 22.6351 28.4807 22.758 28.4507C22.8808 28.4207 23.0083 28.4155 23.1331 28.4356C25.4422 28.8029 26.4044 28.4356 26.82 28.0839C26.9662 27.9532 27.0808 27.7901 27.1549 27.6071H22.5559C22.3007 27.6071 22.0561 27.5042 21.8756 27.321C21.6952 27.1378 21.5938 26.8893 21.5938 26.6302C21.5938 26.3711 21.6952 26.1226 21.8756 25.9393C22.0561 25.7561 22.3007 25.6532 22.5559 25.6532H27.2357C27.1525 25.3222 26.9679 25.0265 26.7084 24.8091C26.3559 24.5415 25.9456 24.3633 25.5116 24.2894H22.5559C22.3007 24.2894 22.0561 24.1864 21.8756 24.0032C21.6952 23.82 21.5938 23.5715 21.5938 23.3124C21.5938 23.0533 21.6952 22.8048 21.8756 22.6216C22.0561 22.4384 22.3007 22.3354 22.5559 22.3354H22.8946C23.8313 22.1805 24.7865 22.1805 25.7232 22.3354H30.2643C30.5195 22.3354 30.7643 22.4384 30.9447 22.6216C31.1251 22.8048 31.2265 23.0533 31.2265 23.3124C31.2265 23.5688 31.1272 23.815 30.9501 23.9977C30.773 24.1805 30.5322 24.2853 30.2798 24.2894Z" fill="white"/>
<path d="M26.5484 18.103C23.815 18.103 21.1936 19.2056 19.2608 21.1682C17.328 23.1308 16.2422 25.7927 16.2422 28.5683C16.2417 29.9429 16.5079 31.3042 17.0256 32.5743C17.5433 33.8445 18.3023 34.9986 19.2594 35.9708C20.2165 36.943 21.3529 37.7142 22.6035 38.2404C23.8542 38.7666 25.1946 39.0374 26.5484 39.0374C27.9021 39.0374 29.2426 38.7666 30.4932 38.2404C31.7439 37.7142 32.8803 36.943 33.8373 35.9708C34.7944 34.9986 35.5535 33.8445 36.0712 32.5743C36.5889 31.3042 36.8551 29.9429 36.8546 28.5683C36.8546 25.7927 35.7687 23.1308 33.8359 21.1682C31.9032 19.2056 29.2817 18.103 26.5484 18.103ZM26.5484 38.0565C24.0705 38.0534 21.6949 37.0522 19.9431 35.2727C18.1913 33.4931 17.2063 31.0805 17.2043 28.5643C17.2074 26.0492 18.1929 23.638 19.9447 21.8599C21.6965 20.0818 24.0715 19.0821 26.5484 19.08C29.026 19.0821 31.4014 20.0824 33.1533 21.8613C34.9053 23.6403 35.8904 26.0524 35.8925 28.5683C35.8894 31.0837 34.9039 33.4953 33.1522 35.274C31.4005 37.0528 29.0256 38.0534 26.5484 38.0565Z" fill="white"/>
<path d="M26.5476 17.1265C23.56 17.1296 20.6956 18.3361 18.5831 20.4812C16.4705 22.6264 15.2824 25.535 15.2793 28.5687C15.2834 31.602 16.4719 34.51 18.5842 36.6549C20.6965 38.7999 23.5603 40.0067 26.5476 40.0108C29.5355 40.0067 32.3999 38.7993 34.5124 36.6536C36.6248 34.5078 37.8128 31.5988 37.8159 28.5647C37.8118 25.5317 36.6232 22.6242 34.5108 20.4798C32.3983 18.3355 29.5345 17.1296 26.5476 17.1265ZM26.5476 38.0569C24.0697 38.0538 21.6942 37.0526 19.9424 35.2731C18.1906 33.4935 17.2056 31.0809 17.2035 28.5647C17.2066 26.0496 18.1922 23.6384 19.944 21.8603C21.6958 20.0822 24.0707 19.0825 26.5476 19.0804C29.0252 19.0825 31.4006 20.0828 33.1525 21.8617C34.9045 23.6407 35.8896 26.0528 35.8917 28.5687C35.8886 31.0841 34.9031 33.4957 33.1514 35.2744C31.3997 37.0532 29.0249 38.0538 26.5476 38.0569Z" fill="#00388C"/>
<path d="M28.9491 35.93C28.7602 36.104 28.511 36.1947 28.2562 36.1823C28.0015 36.1698 27.7621 36.0552 27.5905 35.8635L22.6992 30.416C22.6676 30.3809 22.6393 30.343 22.6145 30.3026C22.486 30.1083 22.4305 29.8736 22.4581 29.6413C22.4856 29.4089 22.5943 29.1943 22.7646 29.0365C22.9541 28.8622 23.2039 28.7714 23.4593 28.7838C23.7146 28.7963 23.9547 28.911 24.1269 29.1029L25.3969 30.5215L29.0144 34.5388C29.1011 34.634 29.1682 34.7458 29.2118 34.8676C29.2555 34.9894 29.2749 35.1188 29.2688 35.2483C29.2627 35.3778 29.2313 35.5047 29.1764 35.6217C29.1215 35.7388 29.0442 35.8436 28.9491 35.93Z" fill="#32996A"/>
<path d="M29.2645 26.3527C29.2747 26.7731 29.2425 27.1934 29.1683 27.6071C29.0415 28.365 28.6608 29.0552 28.0907 29.561C27.3212 30.173 26.3742 30.5096 25.3968 30.5185C25.2198 30.5185 25.0351 30.5185 24.8426 30.5185C24.1695 30.5126 23.4979 30.4538 22.8338 30.3426C22.7586 30.3301 22.685 30.3091 22.6144 30.2801C22.4141 30.1971 22.2475 30.0475 22.1419 29.8558C22.0364 29.6641 21.998 29.4417 22.0332 29.225C22.0529 29.0982 22.097 28.9766 22.163 28.8671C22.229 28.7577 22.3155 28.6625 22.4177 28.587C22.5199 28.5115 22.6358 28.4572 22.7587 28.4272C22.8816 28.3972 23.009 28.3921 23.1339 28.4121C25.4429 28.7795 26.4051 28.4121 26.8207 28.0604C26.9669 27.9298 27.0816 27.7666 27.1556 27.5837C27.2923 27.1835 27.3498 26.7599 27.3249 26.3371C27.3271 26.0983 27.2974 25.8603 27.2364 25.6297C27.1533 25.2987 26.9686 25.0031 26.7091 24.7857C26.3566 24.5181 25.9463 24.3399 25.5123 24.2659C24.7342 24.1298 23.9389 24.1298 23.1608 24.2659C23.1006 24.2715 23.0401 24.2715 22.9799 24.2659C22.7582 24.266 22.5431 24.1882 22.3713 24.0458C22.1995 23.9033 22.0815 23.705 22.0371 23.4843C22.0137 23.3581 22.0151 23.2284 22.0411 23.1027C22.0672 22.9769 22.1173 22.8577 22.1888 22.7517C22.2603 22.6457 22.3517 22.5551 22.4577 22.485C22.5638 22.4149 22.6824 22.3667 22.8068 22.3432H22.8991C23.8359 22.1883 24.7911 22.1883 25.7278 22.3432C26.534 22.4653 27.2952 22.7979 27.9368 23.3085C28.2682 23.5824 28.5451 23.9179 28.7527 24.2972C28.9835 24.72 29.1361 25.1823 29.2029 25.661C29.2391 25.8899 29.2597 26.121 29.2645 26.3527Z" fill="#32996A"/>
<path d="M31.2422 23.3119C31.2422 23.571 31.1409 23.8195 30.9605 24.0027C30.78 24.186 30.5353 24.2889 30.2801 24.2889H22.5832C22.328 24.2889 22.0833 24.186 21.9029 24.0027C21.7224 23.8195 21.6211 23.571 21.6211 23.3119C21.6211 23.0528 21.7224 22.8043 21.9029 22.6211C22.0833 22.4379 22.328 22.335 22.5832 22.335H30.2801C30.5353 22.335 30.78 22.4379 30.9605 22.6211C31.1409 22.8043 31.2422 23.0528 31.2422 23.3119Z" fill="#32996A"/>
<path d="M31.2422 26.6298C31.2422 26.8889 31.1409 27.1374 30.9605 27.3206C30.78 27.5038 30.5353 27.6068 30.2801 27.6068H22.5832C22.328 27.6068 22.0833 27.5038 21.9029 27.3206C21.7224 27.1374 21.6211 26.8889 21.6211 26.6298C21.6211 26.3707 21.7224 26.1222 21.9029 25.939C22.0833 25.7558 22.328 25.6528 22.5832 25.6528H30.2801C30.5353 25.6528 30.78 25.7558 30.9605 25.939C31.1409 26.1222 31.2422 26.3707 31.2422 26.6298Z" fill="#32996A"/>
<path d="M11.9886 65.7791C12.8388 65.7791 13.528 65.0793 13.528 64.216C13.528 63.3527 12.8388 62.6528 11.9886 62.6528C11.1384 62.6528 10.4492 63.3527 10.4492 64.216C10.4492 65.0793 11.1384 65.7791 11.9886 65.7791Z" fill="#00388C"/>
<path d="M32.2048 57.5959C31.0502 57.5959 29.7341 57.5139 28.9451 57.2052C27.3134 56.8886 25.5046 56.9238 25.1813 57.2794C25.0975 57.379 24.9948 57.4604 24.8793 57.5189C24.7639 57.5774 24.6381 57.6117 24.5093 57.6197C24.3806 57.6278 24.2515 57.6095 24.1299 57.5659C24.0082 57.5224 23.8965 57.4544 23.8012 57.366C23.7059 57.2777 23.6291 57.1708 23.5753 57.0517C23.5216 56.9326 23.4919 56.8038 23.4882 56.6728C23.4845 56.5419 23.5068 56.4115 23.5537 56.2895C23.6006 56.1675 23.6712 56.0562 23.7613 55.9625C25.0351 54.5439 28.4102 55.1027 29.4146 55.3099C29.4862 55.3237 29.556 55.346 29.6225 55.3763C30.3152 55.6967 32.6743 55.685 34.1328 55.5756L35.8454 55.3958C35.9897 55.3786 36.1283 55.3285 36.2509 55.2494C36.3735 55.1702 36.477 55.064 36.5535 54.9386L36.7498 54.6103C36.8648 54.4201 36.9118 54.1955 36.883 53.9743C36.8543 53.753 36.7516 53.5485 36.5921 53.395L35.6645 52.5157C35.487 52.3474 35.2532 52.2538 35.0103 52.2539H31.0348C30.3753 52.2542 29.7256 52.0919 29.1414 51.7811C27.7944 51.0581 24.2693 49.3543 20.6248 49.1863H20.3323C16.1567 49.1706 13.0779 53.2973 13.051 53.3286C13.0003 53.3963 12.9423 53.4579 12.8778 53.5122L10.1839 55.6694C9.98308 55.8207 9.73217 55.8867 9.48429 55.8533C9.2364 55.82 9.01101 55.69 8.85591 55.4908C8.7008 55.2917 8.62814 55.039 8.65334 54.7864C8.67853 54.5338 8.79955 54.301 8.99083 54.1375L11.5809 52.0546C12.1736 51.273 15.718 47.0018 20.7056 47.2284C24.7388 47.4121 28.5719 49.2605 30.0343 50.046C30.3408 50.2083 30.6814 50.2928 31.0271 50.2922H35.0142C35.7437 50.2891 36.447 50.5686 36.9808 51.0737L37.9159 51.9608C38.398 52.423 38.7091 53.0392 38.7974 53.7064C38.8857 54.3737 38.7457 55.0514 38.4008 55.6264L38.2045 55.9507C37.9725 56.3322 37.6577 56.6548 37.2842 56.8939C36.9107 57.1329 36.4883 57.2822 36.0494 57.3302L34.306 57.5139C33.9943 57.5451 33.1592 57.5959 32.2048 57.5959Z" fill="#00388C"/>
<path d="M30.4762 64.751C28.8526 64.7765 27.2349 64.5457 25.6811 64.0671C23.113 63.1913 20.3861 62.9031 17.6955 63.223L16.3948 63.985C16.1739 64.1125 15.9123 64.1462 15.6671 64.0786C15.4219 64.011 15.213 63.8476 15.086 63.6242C14.9589 63.4008 14.924 63.1354 14.989 62.886C15.0539 62.6366 15.2135 62.4234 15.4327 62.2929L16.8873 61.441C16.98 61.3855 17.0816 61.3472 17.1875 61.3277C17.353 61.2964 21.29 60.5461 26.2776 62.2108C29.4025 63.2425 33.2895 62.6954 35.3292 62.2773C36.1673 62.1034 36.9492 61.7192 37.6036 61.1596L51.0732 49.694C50.011 48.5802 48.6487 48.6467 47.0208 49.8933C46.5553 50.2553 45.9904 50.4616 45.4044 50.4834C44.3961 50.5224 42.0138 50.796 41.7675 52.5467C41.7496 52.6737 41.7072 52.7959 41.6428 52.9063C41.5783 53.0167 41.4932 53.1131 41.3921 53.19C41.2909 53.2669 41.1759 53.3229 41.0535 53.3546C40.931 53.3864 40.8037 53.3934 40.6786 53.3752C40.5535 53.357 40.4331 53.3139 40.3244 53.2485C40.2157 53.183 40.1207 53.0965 40.0449 52.9938C39.9692 52.8911 39.9141 52.7743 39.8828 52.6499C39.8515 52.5256 39.8447 52.3963 39.8627 52.2693C40.1821 50.0105 42.1717 48.6467 45.339 48.5333C45.5304 48.522 45.7141 48.4525 45.8663 48.334C49.5724 45.4969 52.0238 47.7909 52.6665 48.5646C52.8162 48.7411 52.9298 48.9461 53.001 49.1675C53.0722 49.389 53.0995 49.6225 53.0812 49.8547C53.063 50.087 52.9997 50.3132 52.8948 50.5204C52.7899 50.7275 52.6455 50.9115 52.4701 51.0617L38.8389 62.6759C37.9381 63.4443 36.8627 63.9722 35.7102 64.2117C33.9868 64.563 32.2339 64.7437 30.4762 64.751Z" fill="#00388C"/>
<path d="M11.1036 70.9878H11.0304C10.9 70.9778 10.7729 70.9407 10.6571 70.8789C10.5412 70.817 10.4391 70.7318 10.357 70.6283L1.01675 58.8735C0.930878 58.7674 0.868199 58.6439 0.832877 58.5113C0.797554 58.3787 0.790454 58.24 0.811924 58.1044C0.833395 57.9688 0.882995 57.8394 0.957463 57.7247C1.03193 57.61 1.12954 57.5128 1.24384 57.4393L8.17107 52.8945C8.3734 52.7621 8.61726 52.7115 8.85451 52.7528C9.09175 52.794 9.30518 52.9241 9.45264 53.1172L17.7307 64.024C17.8794 64.2182 17.9503 64.4625 17.9288 64.7075C17.9074 64.9526 17.7953 65.1803 17.6152 65.3449L11.7425 70.7377C11.5671 70.8981 11.3397 70.9872 11.1036 70.9878ZM3.18348 58.4827L11.2152 68.5884L15.6717 64.493L8.47896 55.0164L3.18348 58.4827Z" fill="#00388C"/>
</svg>
