<svg width="41" height="74" viewBox="0 0 41 74" fill="none" xmlns="http://www.w3.org/2000/svg">
<g clip-path="url(#clip0_7_113)">
<path d="M35.9619 73.9999H5.03382C3.69911 73.9988 2.41939 73.4861 1.47561 72.5742C0.531825 71.6623 0.00112302 70.4258 0 69.1362V4.85537C0.00112302 3.56578 0.531825 2.32931 1.47561 1.41743C2.41939 0.505549 3.69911 -0.00721572 5.03382 -0.00830078H35.9619C37.2974 -0.00830124 38.5782 0.503981 39.5229 1.41598C40.4676 2.32798 40.9989 3.56507 41 4.85537V69.1362C40.9989 70.4265 40.4676 71.6636 39.5229 72.5756C38.5782 73.4876 37.2974 73.9999 35.9619 73.9999ZM5.03382 2.04863C4.26148 2.04971 3.52108 2.34663 2.97495 2.8743C2.42882 3.40197 2.12152 4.11734 2.1204 4.86358V69.1362C2.12152 69.8825 2.42882 70.5978 2.97495 71.1255C3.52108 71.6532 4.26148 71.9501 5.03382 71.9512H35.9619C36.7343 71.9501 37.4747 71.6532 38.0208 71.1255C38.5669 70.5978 38.8742 69.8825 38.8754 69.1362V4.85537C38.8742 4.10914 38.5669 3.39376 38.0208 2.86609C37.4747 2.33842 36.7343 2.04151 35.9619 2.04043L5.03382 2.04863Z" fill="#224086"/>
<path d="M34.3419 64.6619H31.0383C30.8041 64.6619 30.6143 64.8453 30.6143 65.0716V68.2635C30.6143 68.4898 30.8041 68.6733 31.0383 68.6733H34.3419C34.5761 68.6733 34.766 68.4898 34.766 68.2635V65.0716C34.766 64.8453 34.5761 64.6619 34.3419 64.6619Z" fill="#30996B"/>
<path d="M20.3894 68.7675C21.5909 68.7675 22.5649 67.8264 22.5649 66.6655C22.5649 65.5046 21.5909 64.5635 20.3894 64.5635C19.1879 64.5635 18.2139 65.5046 18.2139 66.6655C18.2139 67.8264 19.1879 68.7675 20.3894 68.7675Z" fill="#30996B"/>
<path d="M6.44597 67.0221L9.21944 68.5709C9.28403 68.607 9.35731 68.6259 9.43189 68.6258C9.50648 68.6257 9.57973 68.6067 9.64425 68.5705C9.70876 68.5344 9.76227 68.4824 9.79937 68.4199C9.83647 68.3574 9.85586 68.2865 9.85556 68.2144V65.1168C9.85511 65.0451 9.83519 64.9747 9.79779 64.9127C9.76038 64.8508 9.7068 64.7994 9.64241 64.7638C9.57801 64.7281 9.50506 64.7094 9.43083 64.7095C9.35661 64.7096 9.28372 64.7285 9.21944 64.7644L6.44597 66.3173C6.38269 66.3536 6.33026 66.4052 6.29385 66.4669C6.25744 66.5287 6.23828 66.5986 6.23828 66.6697C6.23828 66.7408 6.25744 66.8107 6.29385 66.8724C6.33026 66.9342 6.38269 66.9858 6.44597 67.0221Z" fill="#30996B"/>
<path d="M25.4069 6.04384H15.5895C15.3083 6.04384 15.0386 5.93592 14.8398 5.74381C14.641 5.55171 14.5293 5.29116 14.5293 5.01948C14.5293 4.7478 14.641 4.48725 14.8398 4.29515C15.0386 4.10304 15.3083 3.99512 15.5895 3.99512H25.4069C25.6881 3.99512 25.9578 4.10304 26.1566 4.29515C26.3554 4.48725 26.4671 4.7478 26.4671 5.01948C26.4671 5.29116 26.3554 5.55171 26.1566 5.74381C25.9578 5.93592 25.6881 6.04384 25.4069 6.04384Z" fill="#224086"/>
</g>
<defs>
<clipPath id="clip0_7_113">
<rect width="41" height="74" fill="white"/>
</clipPath>
</defs>
</svg>
