<svg width="55" height="76" viewBox="0 0 55 76" fill="none" xmlns="http://www.w3.org/2000/svg">
<path d="M49.9438 65.0926H4.80623C3.66448 65.0915 2.56981 64.6404 1.76247 63.8382C0.955128 63.036 0.501086 61.9483 0.5 60.8139V14.9745C0.501086 13.8401 0.955128 12.7524 1.76247 11.9502C2.56981 11.148 3.66448 10.6969 4.80623 10.6958H49.9438C51.0855 10.6969 52.1802 11.148 52.9875 11.9502C53.7949 12.7524 54.2489 13.8401 54.25 14.9745V60.8139C54.2489 61.9483 53.7949 63.036 52.9875 63.8382C52.1802 64.6404 51.0855 65.0915 49.9438 65.0926ZM4.80623 12.7333C4.20833 12.7344 3.63523 12.9709 3.21245 13.3909C2.78967 13.811 2.55167 14.3804 2.55059 14.9745V60.8139C2.55059 61.4083 2.78824 61.9783 3.21126 62.3986C3.63427 62.819 4.208 63.0551 4.80623 63.0551H49.9438C50.542 63.0551 51.1157 62.819 51.5387 62.3986C51.9617 61.9783 52.1994 61.4083 52.1994 60.8139V14.9745C52.1994 14.3801 51.9617 13.8101 51.5387 13.3897C51.1157 12.9694 50.542 12.7333 49.9438 12.7333H4.80623Z" fill="#224086"/>
<path d="M45.202 59.0448H9.55049C8.73505 59.0437 7.95331 58.7213 7.37671 58.1484C6.80011 57.5755 6.47569 56.7988 6.47461 55.9885V19.8028C6.47569 18.9926 6.80011 18.2158 7.37671 17.6429C7.95331 17.07 8.73505 16.7477 9.55049 16.7466H45.202C46.0171 16.7487 46.7982 17.0714 47.3746 17.6441C47.951 18.2168 48.2757 18.9929 48.2779 19.8028V55.9885C48.2757 56.7984 47.951 57.5746 47.3746 58.1472C46.7982 58.7199 46.0171 59.0426 45.202 59.0448ZM9.55049 18.7841C9.27857 18.7841 9.01778 18.8914 8.8255 19.0825C8.63322 19.2735 8.5252 19.5326 8.5252 19.8028V55.9885C8.52628 56.2584 8.63464 56.5169 8.82669 56.7077C9.01874 56.8985 9.2789 57.0062 9.55049 57.0073H45.202C45.4736 57.0062 45.7338 56.8985 45.9258 56.7077C46.1179 56.5169 46.2262 56.2584 46.2273 55.9885V19.8028C46.2262 19.533 46.1179 19.2744 45.9258 19.0836C45.7338 18.8928 45.4736 18.7851 45.202 18.7841H9.55049Z" fill="#224086"/>
<path d="M47.2527 12.7332H7.49998C7.33255 12.7338 7.16752 12.6936 7.01942 12.616C6.87132 12.5384 6.7447 12.4258 6.6507 12.2881C6.55671 12.1505 6.49823 11.9919 6.48041 11.8265C6.46259 11.6611 6.48597 11.4939 6.54851 11.3395L10.1329 2.41941C10.3606 1.84897 10.7566 1.36034 11.269 1.01777C11.7814 0.6752 12.3862 0.494748 13.0038 0.500116H41.7776C42.3952 0.494748 42.9999 0.6752 43.5123 1.01777C44.0247 1.36034 44.4208 1.84897 44.6484 2.41941L48.2369 11.3395C48.2995 11.4939 48.3229 11.6611 48.3051 11.8265C48.2872 11.9919 48.2288 12.1505 48.1348 12.2881C48.0408 12.4258 47.9142 12.5384 47.7661 12.616C47.618 12.6936 47.4529 12.7338 47.2855 12.7332H47.2527ZM9.01332 10.6957H45.7352L42.7127 3.17738C42.6379 2.98755 42.5069 2.82475 42.337 2.71051C42.1671 2.59627 41.9663 2.53597 41.7612 2.5376H12.9874C12.7822 2.53597 12.5814 2.59627 12.4115 2.71051C12.2416 2.82475 12.1106 2.98755 12.0359 3.17738L9.01332 10.6957Z" fill="#224086"/>
<path d="M41.7617 75.4999H12.9878C12.3696 75.5055 11.7643 75.3246 11.2517 74.9812C10.7392 74.6378 10.3435 74.148 10.117 73.5765L6.53256 64.6604C6.47022 64.5059 6.44696 64.3385 6.46482 64.1729C6.48268 64.0073 6.54112 63.8486 6.63501 63.7107C6.72891 63.5728 6.85539 63.4598 7.0034 63.3817C7.15142 63.3036 7.31645 63.2627 7.48404 63.2627H47.2367C47.4043 63.2631 47.5692 63.3042 47.7171 63.3823C47.865 63.4604 47.9916 63.5732 48.0857 63.711C48.1782 63.8494 48.2359 64.008 48.2537 64.1732C48.2716 64.3385 48.2491 64.5056 48.1882 64.6604L44.6161 73.5642C44.3925 74.1355 44.0002 74.6261 43.4907 74.9716C42.9813 75.317 42.3785 75.5012 41.7617 75.4999ZM9.01378 65.3124L12.0363 72.8348C12.112 73.024 12.2433 73.1862 12.4129 73.3003C12.5826 73.4143 12.7829 73.4751 12.9878 73.4746H41.7617C41.9665 73.4751 42.1668 73.4143 42.3365 73.3003C42.5062 73.1862 42.6374 73.024 42.7131 72.8348L45.7357 65.3124H9.01378Z" fill="#224086"/>
<path d="M23.8146 53.6377H23.7161C23.5076 53.6174 23.3103 53.5343 23.1505 53.3996C22.9907 53.2649 22.8762 53.085 22.8221 52.8839L18.278 35.7364L15.1447 44.0452C15.0713 44.2392 14.9401 44.4063 14.7686 44.5242C14.5971 44.6422 14.3935 44.7054 14.185 44.7054H8.32031V42.6679H13.4755L17.4864 32.0241C17.5626 31.8214 17.7018 31.6481 17.8838 31.5292C18.0657 31.4104 18.2811 31.3522 18.4985 31.3631C18.716 31.374 18.9244 31.4534 19.0934 31.5898C19.2624 31.7263 19.3833 31.9126 19.4386 32.1219L24.0975 49.6931L29.4291 38.6907C29.5092 38.5249 29.6332 38.3839 29.7878 38.2827C29.9424 38.1814 30.1217 38.1239 30.3067 38.1162C30.4918 38.1093 30.6754 38.1518 30.8384 38.2392C31.0013 38.3266 31.1378 38.4558 31.2336 38.6133L34.0306 43.2954H46.4325V45.3329H33.4482C33.2705 45.3331 33.0957 45.2874 32.9412 45.2002C32.7866 45.1131 32.6575 44.9875 32.5665 44.8358L30.4462 41.2865L24.7332 53.0713C24.6484 53.2414 24.5175 53.3845 24.3551 53.4846C24.1928 53.5847 24.0056 53.6377 23.8146 53.6377Z" fill="#224086"/>
<path d="M41.0157 23.8497L40.8025 23.7559C40.115 23.4546 39.3353 23.4368 38.6346 23.7066C37.934 23.9763 37.3699 24.5115 37.0663 25.1944L36.9391 25.4796L36.853 25.2881C36.6965 24.9359 36.4716 24.6177 36.1913 24.3518C35.9109 24.0859 35.5805 23.8776 35.219 23.7387C34.8576 23.5998 34.4721 23.5331 34.0846 23.5423C33.6972 23.5516 33.3153 23.6366 32.961 23.7926C32.5297 23.982 32.1505 24.2715 31.8551 24.6366C31.5596 25.0018 31.3566 25.432 31.2631 25.8912C31.1869 26.2733 31.1943 26.6672 31.2848 27.0462C31.3754 27.4252 31.5471 27.7804 31.7881 28.0876L36.2789 33.8945C36.3239 33.949 36.3805 33.993 36.4447 34.0232C36.5089 34.0534 36.579 34.0691 36.65 34.0691C36.721 34.0691 36.7912 34.0534 36.8553 34.0232C36.9195 33.993 36.9762 33.949 37.0212 33.8945L41.9795 28.1039C42.2546 27.7855 42.4523 27.4086 42.5575 27.0022C42.6627 26.5958 42.6724 26.1708 42.586 25.76C42.4996 25.3493 42.3194 24.9638 42.0592 24.6332C41.799 24.3027 41.4658 24.036 41.0854 23.8537L41.0157 23.8497Z" fill="#329A6B"/>
</svg>
