<svg width="52" height="52" viewBox="0 0 52 52" fill="none" xmlns="http://www.w3.org/2000/svg">
<path d="M37.1341 22.7169V24.2462H37.9053V22.7169H37.1341ZM37.1341 18.481V20.053C37.2667 20.0836 37.3963 20.1203 37.5259 20.1601L37.6925 20.2151C37.7648 20.239 37.8359 20.2665 37.9053 20.2977C38.1815 20.4063 38.4411 20.5525 38.6766 20.732V18.481H37.1341ZM37.9053 26.225L37.7233 26.277C37.6218 26.3056 37.5188 26.329 37.4148 26.3473C37.3284 26.3657 37.242 26.381 37.1495 26.3932V27.9224C37.4088 27.8928 37.6663 27.8489 37.9208 27.7909C38.1839 27.736 38.4419 27.6593 38.692 27.5615V25.858C38.4486 26.0165 38.1837 26.1401 37.9053 26.225ZM34.8202 0.375005H4.23139C3.20911 0.376623 2.22917 0.779927 1.50631 1.49654C0.783448 2.21315 0.376632 3.18462 0.375 4.19806V48.0103C0.376632 49.0237 0.783448 49.9952 1.50631 50.7118C2.22917 51.4284 3.20911 51.8317 4.23139 51.8333H34.8326C35.8548 51.8317 36.8348 51.4284 37.5576 50.7118C38.2805 49.9952 38.6873 49.0237 38.6889 48.0103V38.315C38.4792 38.315 38.2694 38.3303 38.0565 38.3303H37.9177C37.6585 38.3303 37.4025 38.315 37.1464 38.2967V48.0103C37.1448 48.6181 36.9005 49.2007 36.4669 49.6305C36.0333 50.0603 35.4457 50.3025 34.8326 50.3041H4.23139C3.61822 50.3025 3.03063 50.0603 2.59705 49.6305C2.16348 49.2007 1.91918 48.6181 1.91755 48.0103V4.19806C1.91918 3.59019 2.16348 3.00769 2.59705 2.57786C3.03063 2.14803 3.61822 1.90584 4.23139 1.90423H34.8326C35.4457 1.90584 36.0333 2.14803 36.4669 2.57786C36.9005 3.00769 37.1448 3.59019 37.1464 4.19806V14.0952C37.4025 14.0768 37.6585 14.0646 37.9177 14.0615H38.0565C38.2694 14.0615 38.4792 14.0615 38.6889 14.0615V4.18277C38.6832 3.16987 38.2729 2.20047 37.5478 1.48681C36.8228 0.773149 35.842 0.373371 34.8202 0.375005ZM37.1341 29.6229V31.8953L37.9053 32.7395L38.6766 33.5805V31.3051L37.1341 29.6229ZM37.1341 22.7169V24.2462H38.6766V22.7169H37.1341ZM37.1341 22.7169V24.2462H37.9053V22.7169H37.1341Z" fill="#00388C"/>
<path d="M38.6706 12.5479C38.4608 12.5479 38.251 12.5479 38.0381 12.5479H37.8993C37.6401 12.5479 37.3841 12.5479 37.128 12.5784C33.636 12.8046 30.3614 14.3393 27.9689 16.8711C25.5764 19.4029 24.2451 22.7422 24.2451 26.2115C24.2451 29.6807 25.5764 33.02 27.9689 35.5518C30.3614 38.0837 33.636 39.6183 37.128 39.8445C37.3841 39.8628 37.6401 39.872 37.8993 39.8751H38.0381C38.251 39.8751 38.4608 39.8751 38.6706 39.8598C42.2149 39.7019 45.5613 38.195 48.0131 35.6528C50.465 33.1105 51.8333 29.7287 51.8333 26.2115C51.8333 22.6942 50.465 19.3124 48.0131 16.7702C45.5613 14.2279 42.2149 12.721 38.6706 12.5631V12.5479ZM38.6706 38.3153C38.4608 38.3153 38.251 38.3305 38.0381 38.3305H37.8993C37.6401 38.3305 37.3841 38.3152 37.128 38.2969C34.0443 38.074 31.16 36.7024 29.0548 34.4576C26.9495 32.2128 25.7792 29.2613 25.7792 26.1962C25.7792 23.131 26.9495 20.1795 29.0548 17.9347C31.16 15.6899 34.0443 14.3183 37.128 14.0954C37.3841 14.0771 37.6401 14.0648 37.8993 14.0618H38.0381C38.251 14.0618 38.4608 14.0618 38.6706 14.0618C41.8014 14.2254 44.7495 15.5735 46.9073 17.8284C49.0651 20.0832 50.2679 23.0728 50.2679 26.1809C50.2679 29.2889 49.0651 32.2785 46.9073 34.5334C44.7495 36.7882 41.8014 38.1364 38.6706 38.3V38.3153Z" fill="#00388C"/>
<path d="M41.0197 34.9964C40.8677 35.1328 40.6675 35.2039 40.4627 35.1942C40.258 35.1844 40.0656 35.0946 39.9275 34.9444L38.6935 33.5804L37.9222 32.7393L37.1509 31.8952L33.5722 27.9896C33.5122 27.925 33.4642 27.8504 33.4303 27.7693C33.3605 27.603 33.3521 27.4175 33.4068 27.2456C33.4615 27.0737 33.5756 26.9265 33.7291 26.83C33.8826 26.7334 34.0655 26.6937 34.2457 26.7178C34.4258 26.742 34.5916 26.8284 34.7137 26.9619L35.6392 27.9896L37.1355 29.6228L38.6781 31.3049L41.069 33.9138C41.207 34.064 41.2792 34.2623 41.27 34.4652C41.2607 34.6682 41.1707 34.8592 41.0197 34.9964Z" fill="#32996A"/>
<path d="M41.2066 24.2453C41.1208 25.2498 40.6532 26.1845 39.8985 26.8603C39.5325 27.1677 39.1148 27.4089 38.6645 27.5729C38.4144 27.6707 38.1564 27.7474 37.8932 27.8023C37.6388 27.8603 37.3813 27.9042 37.1219 27.9338C36.745 27.9752 36.3659 27.9957 35.9866 27.995H35.6257C34.8896 27.9707 34.1559 27.8992 33.4291 27.7809H33.4013C33.2064 27.739 33.0354 27.6239 32.9242 27.4598C32.8131 27.2956 32.7704 27.0951 32.8051 26.9005C32.8399 26.7058 32.9493 26.532 33.1105 26.4156C33.2717 26.2991 33.4721 26.2492 33.6697 26.2761C34.8079 26.4857 35.971 26.529 37.1219 26.4046C37.2145 26.4046 37.3009 26.377 37.3873 26.3587C37.4912 26.3404 37.5942 26.3169 37.6958 26.2883L37.8778 26.2363C38.1502 26.1539 38.4097 26.0346 38.6491 25.8816C38.7261 25.8295 38.8002 25.7733 38.8712 25.7134C39.2918 25.3345 39.5593 24.8172 39.624 24.2575C39.683 23.8905 39.7078 23.5189 39.698 23.1473C39.698 23.0036 39.698 22.8629 39.6795 22.7283C39.6621 22.3578 39.5676 21.9948 39.402 21.6621C39.2363 21.3295 39.0031 21.0344 38.717 20.7954C38.6957 20.7764 38.673 20.759 38.6491 20.7434C38.4135 20.5639 38.1539 20.4177 37.8778 20.3091C37.8083 20.2779 37.7373 20.2503 37.6649 20.2265L37.4983 20.1715C37.3687 20.1317 37.2392 20.095 37.1065 20.0644L36.8998 20.0216C35.834 19.84 34.7448 19.84 33.679 20.0216C33.6307 20.0259 33.5822 20.0259 33.534 20.0216C33.3294 20.0402 33.1258 19.9776 32.9678 19.8474C32.8099 19.7172 32.7106 19.5301 32.6917 19.3273C32.6729 19.1245 32.7361 18.9226 32.8675 18.7661C32.9988 18.6095 33.1875 18.511 33.3921 18.4924H33.4692C34.6524 18.3033 35.8585 18.3033 37.0417 18.4924H37.1065C37.3669 18.539 37.6244 18.6003 37.8778 18.6759C38.1414 18.7524 38.3991 18.8475 38.6491 18.9603C39.0258 19.1275 39.3785 19.3435 39.698 19.6026C39.8522 19.727 39.9966 19.863 40.1299 20.0094C40.8012 20.758 41.1885 21.7151 41.2252 22.7161C41.2252 22.8507 41.2252 22.9852 41.2252 23.1259C41.2472 23.499 41.241 23.8732 41.2066 24.2453Z" fill="#32996A"/>
<path d="M43.8568 19.2462C43.8572 19.3467 43.8375 19.4463 43.7989 19.5393C43.7603 19.6322 43.7035 19.7167 43.6318 19.7878C43.5601 19.8589 43.4749 19.9152 43.3812 19.9535C43.2874 19.9918 43.1869 20.0113 43.0855 20.0109H33.0096C32.805 20.0109 32.6088 19.9303 32.4642 19.7869C32.3195 19.6435 32.2383 19.449 32.2383 19.2462C32.2383 19.0433 32.3195 18.8488 32.4642 18.7054C32.6088 18.562 32.805 18.4815 33.0096 18.4815H43.0855C43.1869 18.481 43.2874 18.5006 43.3812 18.5388C43.4749 18.5771 43.5601 18.6334 43.6318 18.7045C43.7035 18.7756 43.7603 18.8601 43.7989 18.953C43.8375 19.046 43.8572 19.1456 43.8568 19.2462Z" fill="#32996A"/>
<path d="M43.8578 23.4815C43.8582 23.582 43.8385 23.6817 43.7999 23.7746C43.7613 23.8676 43.7045 23.952 43.6328 24.0231C43.5611 24.0942 43.4759 24.1505 43.3821 24.1888C43.2884 24.2271 43.1879 24.2466 43.0865 24.2462H33.0105C32.806 24.2462 32.6098 24.1656 32.4651 24.0222C32.3205 23.8788 32.2393 23.6843 32.2393 23.4815C32.2393 23.2787 32.3205 23.0842 32.4651 22.9408C32.6098 22.7974 32.806 22.7168 33.0105 22.7168H43.0865C43.1879 22.7164 43.2884 22.7359 43.3821 22.7742C43.4759 22.8125 43.5611 22.8688 43.6328 22.9399C43.7045 23.011 43.7613 23.0954 43.7999 23.1884C43.8385 23.2814 43.8582 23.381 43.8578 23.4815Z" fill="#32996A"/>
<path d="M18.5412 8.44657L9.19024 17.7167C9.04514 17.8598 8.84881 17.9401 8.64417 17.9401C8.43953 17.9401 8.2432 17.8598 8.0981 17.7167C7.95454 17.5725 7.87402 17.378 7.87402 17.1754C7.87402 16.9727 7.95454 16.7783 8.0981 16.634L17.449 7.36388C17.5939 7.22031 17.7903 7.13965 17.9951 7.13965C18.1999 7.13965 18.3964 7.22031 18.5412 7.36388C18.686 7.50745 18.7674 7.70218 18.7674 7.90523C18.7674 8.10827 18.686 8.30299 18.5412 8.44657Z" fill="#00388C"/>
<path fill-rule="evenodd" clip-rule="evenodd" d="M12.2537 8.93244C12.2537 9.43941 12.102 9.93499 11.818 10.3565C11.5339 10.7781 11.1301 11.1066 10.6577 11.3006C10.1853 11.4946 9.66545 11.5454 9.16395 11.4465C8.66245 11.3476 8.2018 11.1034 7.84024 10.745C7.47867 10.3865 7.23244 9.92974 7.13268 9.43251C7.03293 8.93528 7.08414 8.41988 7.27982 7.9515C7.4755 7.48312 7.80686 7.08279 8.23201 6.80113C8.65717 6.51947 9.157 6.36914 9.66833 6.36914C10.354 6.36914 11.0116 6.6392 11.4964 7.11991C11.9813 7.60062 12.2537 8.25261 12.2537 8.93244Z" fill="#00388C"/>
<path fill-rule="evenodd" clip-rule="evenodd" d="M19.9402 16.5418C19.9402 17.0488 19.7885 17.5444 19.5045 17.9659C19.2204 18.3874 18.8166 18.716 18.3442 18.91C17.8718 19.104 17.352 19.1547 16.8505 19.0558C16.349 18.9569 15.8883 18.7128 15.5268 18.3543C15.1652 17.9958 14.919 17.5391 14.8192 17.0419C14.7195 16.5446 14.7706 16.0293 14.9663 15.5609C15.162 15.0925 15.4934 14.6922 15.9185 14.4105C16.3437 14.1288 16.8435 13.9785 17.3549 13.9785C18.0405 13.9785 18.6981 14.2486 19.183 14.7293C19.6678 15.21 19.9402 15.862 19.9402 16.5418Z" fill="#00388C"/>
<path d="M19.4642 26.1944C19.4646 26.2949 19.4449 26.3946 19.4063 26.4875C19.3677 26.5805 19.3109 26.6649 19.2392 26.736C19.1675 26.8071 19.0823 26.8634 18.9885 26.9017C18.8948 26.94 18.7943 26.9595 18.6929 26.9591H6.27225C6.0677 26.9591 5.87154 26.8785 5.7269 26.7351C5.58226 26.5917 5.50098 26.3972 5.50098 26.1944C5.50098 25.9916 5.58226 25.7971 5.7269 25.6537C5.87154 25.5103 6.0677 25.4297 6.27225 25.4297H18.6929C18.8975 25.4297 19.0937 25.5103 19.2383 25.6537C19.3829 25.7971 19.4642 25.9916 19.4642 26.1944Z" fill="#00388C"/>
<path d="M19.4652 34.4312C19.4652 34.634 19.3839 34.8285 19.2393 34.9719C19.0946 35.1154 18.8984 35.1959 18.6939 35.1959H6.27323C6.06868 35.1959 5.87252 35.1154 5.72788 34.9719C5.58323 34.8285 5.50195 34.634 5.50195 34.4312C5.50195 34.2284 5.58323 34.0339 5.72788 33.8905C5.87252 33.7471 6.06868 33.6665 6.27323 33.6665H18.6939C18.7953 33.6661 18.8958 33.6856 18.9895 33.7239C19.0833 33.7622 19.1685 33.8185 19.2402 33.8896C19.3119 33.9607 19.3687 34.0451 19.4073 34.1381C19.4459 34.2311 19.4656 34.3307 19.4652 34.4312Z" fill="#00388C"/>
<path d="M32.1789 43.1871C32.1789 43.3899 32.0976 43.5844 31.953 43.7278C31.8083 43.8712 31.6122 43.9518 31.4076 43.9518H6.27323C6.06867 43.9518 5.87252 43.8712 5.72788 43.7278C5.58323 43.5844 5.50195 43.3899 5.50195 43.1871C5.50195 42.9843 5.58323 42.7898 5.72788 42.6463C5.87252 42.5029 6.06867 42.4224 6.27323 42.4224H31.4076C31.6122 42.4224 31.8083 42.5029 31.953 42.6463C32.0976 42.7898 32.1789 42.9843 32.1789 43.1871Z" fill="#00388C"/>
</svg>
