<svg width="53" height="61" viewBox="0 0 53 61" fill="none" xmlns="http://www.w3.org/2000/svg">
<path d="M34.2305 7.19727V14.2073H46.0981V7.19727H34.2305ZM44.4195 12.5446H35.9091V8.85998H44.4195V12.5446Z" fill="#224086"/>
<path d="M46.0982 12.875C45.7544 12.8281 45.4078 12.8048 45.0608 12.8052H35.2645C34.9188 12.8055 34.5734 12.8277 34.2305 12.8717C32.3202 13.121 30.5666 14.05 29.2967 15.4854C28.0268 16.9207 27.3271 18.7646 27.3281 20.6731V42.2884C27.3272 43.321 27.5319 44.3436 27.9305 45.2978C28.329 46.252 28.9135 47.119 29.6507 47.8491C30.3878 48.5793 31.263 49.1583 32.2263 49.5531C33.1896 49.9478 34.222 50.1506 35.2645 50.1497H45.0608C46.1035 50.151 47.1363 49.9486 48.1 49.554C49.0636 49.1595 49.9393 48.5805 50.6768 47.8503C51.4143 47.1201 51.9991 46.253 52.3979 45.2986C52.7966 44.3442 53.0014 43.3213 53.0005 42.2884V20.6731C53.0007 18.7651 52.3007 16.9221 51.0308 15.4874C49.761 14.0528 48.0079 13.1243 46.0982 12.875ZM45.0608 48.487H35.2645C34.18 48.4848 33.1148 48.2035 32.1731 47.6707C31.2314 47.1379 30.4457 46.3718 29.893 45.4475C29.3225 44.4904 29.02 43.3999 29.0168 42.2884V20.6731C29.0186 19.0294 29.6783 17.4534 30.8514 16.2908C32.0245 15.1282 33.6152 14.4738 35.2746 14.4712H45.0708C46.7288 14.4765 48.3173 15.1319 49.4887 16.2941C50.6601 17.4564 51.3193 19.0308 51.3219 20.6731V42.2884C51.3224 42.7928 51.2604 43.2954 51.1373 43.7848C50.9911 44.3699 50.758 44.9303 50.4457 45.4475C49.8913 46.3733 49.1034 47.1402 48.1593 47.6731C47.2152 48.206 46.1474 48.4865 45.0608 48.487Z" fill="#224086"/>
<path d="M45.9826 51.3361H34.3432C34.1206 51.3361 33.9071 51.2485 33.7497 51.0926C33.5923 50.9366 33.5039 50.7252 33.5039 50.5047C33.5039 50.2842 33.5923 50.0728 33.7497 49.9168C33.9071 49.7609 34.1206 49.6733 34.3432 49.6733H45.9826C46.2052 49.6733 46.4186 49.7609 46.576 49.9168C46.7334 50.0728 46.8219 50.2842 46.8219 50.5047C46.8219 50.7252 46.7334 50.9366 46.576 51.0926C46.4186 51.2485 46.2052 51.3361 45.9826 51.3361Z" fill="#224086"/>
<path d="M40.1616 14.1208C39.939 14.1208 39.7255 14.0332 39.5681 13.8773C39.4107 13.7214 39.3223 13.5099 39.3223 13.2894V11.3973C39.3223 11.1768 39.4107 10.9653 39.5681 10.8094C39.7255 10.6535 39.939 10.5659 40.1616 10.5659C40.3842 10.5659 40.5977 10.6535 40.7551 10.8094C40.9125 10.9653 41.0009 11.1768 41.0009 11.3973V13.2894C41.0009 13.5099 40.9125 13.7214 40.7551 13.8773C40.5977 14.0332 40.3842 14.1208 40.1616 14.1208Z" fill="#224086"/>
<path d="M52.2781 43.7803H28.0459V45.443H52.2781V43.7803Z" fill="#224086"/>
<path d="M49.3333 8.62707H30.9897C30.7671 8.62707 30.5536 8.53948 30.3962 8.38357C30.2388 8.22766 30.1504 8.0162 30.1504 7.79571C30.1504 7.57522 30.2388 7.36375 30.3962 7.20784C30.5536 7.05193 30.7671 6.96436 30.9897 6.96436H49.3333C49.5559 6.96436 49.7694 7.05193 49.9268 7.20784C50.0842 7.36375 50.1726 7.57522 50.1726 7.79571C50.1726 8.0162 50.0842 8.22766 49.9268 8.38357C49.7694 8.53948 49.5559 8.62707 49.3333 8.62707Z" fill="#224086"/>
<path d="M15.6538 25.5537C15.4312 25.5537 15.2177 25.4661 15.0603 25.3102C14.9029 25.1543 14.8145 24.9429 14.8145 24.7224V20.7086C14.8094 20.2127 14.9642 19.7283 15.2565 19.3257C15.5488 18.9232 15.9632 18.6235 16.4394 18.4706C16.8028 18.3636 17.1593 18.2347 17.5069 18.0848C20.4109 16.7546 21.5087 14.4534 21.2972 10.1869C21.0723 5.68097 17.6043 2.03632 13.24 1.70045C12.0639 1.60965 10.8817 1.76297 9.76886 2.15063C8.65605 2.53829 7.63717 3.15174 6.7774 3.95175C5.84955 4.81007 5.11037 5.84874 4.60609 7.00282C4.1018 8.1569 3.84327 9.40161 3.84658 10.6591C3.84658 14.7394 4.91415 16.8211 7.64689 18.0848C7.99356 18.2343 8.34895 18.3631 8.71114 18.4706C9.18793 18.623 9.60307 18.9223 9.89599 19.3249C10.1889 19.7275 10.3442 20.2123 10.3394 20.7086V24.7224C10.3394 24.9429 10.2509 25.1543 10.0935 25.3102C9.93612 25.4661 9.72266 25.5537 9.50007 25.5537C9.27747 25.5537 9.06398 25.4661 8.90658 25.3102C8.74918 25.1543 8.66077 24.9429 8.66077 24.7224V20.7086C8.66841 20.5635 8.62794 20.42 8.54549 20.2999C8.46305 20.1798 8.34317 20.0898 8.2042 20.0435C7.77225 19.9134 7.34848 19.7579 6.93517 19.5779C2.73533 17.6359 2.16799 13.9713 2.16799 10.6458C2.1653 9.15931 2.47184 7.68818 3.06851 6.3242C3.66517 4.96022 4.53915 3.73264 5.63594 2.71803C6.66289 1.76186 7.88027 1.0289 9.21 0.566181C10.5397 0.10346 11.9524 -0.0788108 13.3575 0.0310768C18.5611 0.426802 22.6904 4.75318 22.9557 10.0905C23.2007 15.0188 21.7337 17.9452 18.2019 19.5779C17.7863 19.758 17.3603 19.9134 16.9262 20.0435C16.7884 20.0909 16.67 20.1815 16.5889 20.3015C16.5077 20.4215 16.4682 20.5644 16.4763 20.7086V24.7224C16.4764 24.94 16.3902 25.149 16.2364 25.3044C16.0827 25.4599 15.8734 25.5494 15.6538 25.5537Z" fill="#224086"/>
<path d="M16.3632 28.1178H8.56781C8.34522 28.1178 8.13176 28.0302 7.97436 27.8743C7.81696 27.7184 7.72852 27.5069 7.72852 27.2864C7.72852 27.0659 7.81696 26.8545 7.97436 26.6986C8.13176 26.5427 8.34522 26.4551 8.56781 26.4551H16.3632C16.5858 26.4551 16.7993 26.5427 16.9567 26.6986C17.1141 26.8545 17.2025 27.0659 17.2025 27.2864C17.2025 27.5069 17.1141 27.7184 16.9567 27.8743C16.7993 28.0302 16.5858 28.1178 16.3632 28.1178Z" fill="#224086"/>
<path d="M15.2209 29.5177H9.70844C9.48584 29.5177 9.27234 29.4301 9.11495 29.2742C8.95755 29.1183 8.86914 28.9068 8.86914 28.6863C8.86914 28.4658 8.95755 28.2544 9.11495 28.0985C9.27234 27.9426 9.48584 27.855 9.70844 27.855H15.2209C15.4435 27.855 15.657 27.9426 15.8144 28.0985C15.9718 28.2544 16.0602 28.4658 16.0602 28.6863C16.0602 28.9068 15.9718 29.1183 15.8144 29.2742C15.657 29.4301 15.4435 29.5177 15.2209 29.5177Z" fill="#224086"/>
<path d="M20.9757 37.981H4.56576C3.35512 37.9818 2.19434 38.4586 1.33828 39.3066C0.482228 40.1545 0.0008892 41.3044 0 42.5035V51.439C0 51.7556 0.126988 52.0592 0.353012 52.2831C0.579037 52.507 0.885612 52.6328 1.20526 52.6328H6.65396C6.97303 52.6319 7.2787 52.5057 7.50399 52.2819C7.72929 52.0582 7.85582 51.755 7.85582 51.439V45.3002H20.9757C21.2944 45.3002 21.6002 45.1748 21.8255 44.9515C22.0509 44.7283 22.1776 44.4255 22.1776 44.1097V39.1715C22.1767 38.856 22.0498 38.5537 21.8246 38.3306C21.5994 38.1076 21.2942 37.9818 20.9757 37.981ZM20.499 43.6342H7.38244C7.0628 43.6342 6.75626 43.76 6.53024 43.9839C6.30421 44.2077 6.17723 44.5114 6.17723 44.828V50.9701H1.67859V42.5069C1.67948 41.7486 1.98397 41.0217 2.52522 40.4856C3.06648 39.9495 3.80031 39.6479 4.56576 39.647H20.499V43.6342Z" fill="#224086"/>
<path d="M21.3383 47.9406C21.1157 47.9406 20.9022 47.853 20.7448 47.6971C20.5874 47.5412 20.499 47.3297 20.499 47.1092V36.7239C20.499 36.5034 20.5874 36.292 20.7448 36.1361C20.9022 35.9802 21.1157 35.8926 21.3383 35.8926C21.5609 35.8926 21.7744 35.9802 21.9318 36.1361C22.0892 36.292 22.1776 36.5034 22.1776 36.7239V47.1026C22.1785 47.2123 22.1574 47.3211 22.1157 47.4228C22.0739 47.5244 22.0122 47.6168 21.9342 47.6947C21.8562 47.7726 21.7633 47.8345 21.661 47.8767C21.5588 47.9189 21.4491 47.9406 21.3383 47.9406Z" fill="#224086"/>
<path d="M15.5209 39.6429C15.2983 39.6429 15.0849 39.5553 14.9275 39.3994C14.7701 39.2435 14.6816 39.0321 14.6816 38.8116V34.0296C14.6816 33.8091 14.7701 33.5977 14.9275 33.4417C15.0849 33.2858 15.2983 33.1982 15.5209 33.1982C15.7435 33.1982 15.957 33.2858 16.1144 33.4417C16.2718 33.5977 16.3602 33.8091 16.3602 34.0296V38.8116C16.3602 39.0321 16.2718 39.2435 16.1144 39.3994C15.957 39.5553 15.7435 39.6429 15.5209 39.6429Z" fill="#224086"/>
<path d="M20.0423 34.7218H11.0014C10.7788 34.7218 10.5654 34.6342 10.408 34.4783C10.2506 34.3224 10.1621 34.1109 10.1621 33.8904C10.1621 33.6699 10.2506 33.4585 10.408 33.3026C10.5654 33.1467 10.7788 33.0591 11.0014 33.0591H20.0423C20.2649 33.0591 20.4784 33.1467 20.6358 33.3026C20.7932 33.4585 20.8816 33.6699 20.8816 33.8904C20.8816 34.1109 20.7932 34.3224 20.6358 34.4783C20.4784 34.6342 20.2649 34.7218 20.0423 34.7218Z" fill="#224086"/>
<path d="M3.74773 54.3325L1.67969 57.8275C1.67969 57.8275 0.843747 59.6233 2.51563 60.6608C2.87896 60.8827 3.29742 61.0002 3.72424 61.0002C4.15107 61.0002 4.56949 60.8827 4.93282 60.6608C4.93282 60.6608 6.6114 59.8162 5.71167 57.7112L3.74773 54.3325Z" fill="#329A6B"/>
<path d="M38.4963 37.1565C37.932 36.9907 37.4139 36.6982 36.9822 36.3018C36.1901 35.5601 35.6952 34.5598 35.589 33.4852C35.5091 32.5137 35.6862 31.5383 36.1027 30.6552C36.3532 30.1135 36.6591 29.5987 37.0158 29.1189C37.7871 28.0751 38.3866 26.9168 38.7918 25.6871C39.0886 24.7961 39.2305 23.8617 39.2114 22.9236C39.203 22.8585 39.203 22.7926 39.2114 22.7274C39.2211 22.6577 39.2542 22.5933 39.3054 22.5445C39.3377 22.5357 39.3716 22.5347 39.4044 22.5417C39.4371 22.5486 39.4676 22.5633 39.4934 22.5844C39.7694 22.8322 40.0274 23.0989 40.2656 23.3825C40.9493 24.2778 41.3584 25.3491 41.444 26.4685C41.4775 26.8509 41.4809 27.2334 41.501 27.6191C41.5042 28.0545 41.5721 28.487 41.7025 28.9027C41.7525 29.0496 41.8237 29.1885 41.9139 29.3151C42.0684 29.5146 42.2497 29.4947 42.3873 29.2785C42.5254 29.0123 42.5957 28.7166 42.5921 28.4172C42.5921 28.2376 42.5921 28.0581 42.5921 27.8785C42.5946 27.8412 42.6049 27.8049 42.6222 27.7717C42.6396 27.7385 42.6636 27.7092 42.6928 27.6856C42.728 27.6795 42.7641 27.6814 42.7984 27.6912C42.8327 27.701 42.8644 27.7185 42.8909 27.7422C43.2323 28.0555 43.5123 28.4287 43.7168 28.8429C44.4059 30.1155 44.7528 31.5425 44.7239 32.9864C44.6836 34.0505 44.2505 34.9417 43.6966 35.8762C42.666 37.6087 40.4637 37.2994 40.4334 37.2629C40.4129 37.2323 40.4003 37.1972 40.3968 37.1606C40.3933 37.1241 40.3989 37.0872 40.4133 37.0534C42.4276 34.8652 40.4133 33.1327 40.0172 32.3512C39.4834 34.9151 37.6671 34.679 38.6306 36.8339C38.7011 36.9536 38.7246 37.0567 38.6306 37.1664L38.4963 37.1565Z" fill="#329A6B"/>
<path d="M15.9906 9.85787L14.0837 9.83459C14.0746 9.83478 14.0656 9.83254 14.0577 9.82808C14.0498 9.82362 14.0433 9.81713 14.0388 9.80928C14.0343 9.80144 14.0321 9.79253 14.0323 9.78352C14.0325 9.77452 14.0352 9.76573 14.0401 9.75811L16.3599 6.3296C16.3645 6.32172 16.367 6.31279 16.3671 6.30368C16.3672 6.29457 16.365 6.28559 16.3606 6.27758C16.3563 6.26957 16.3499 6.26282 16.3421 6.25795C16.3343 6.25309 16.3254 6.25027 16.3162 6.24979L12.2406 6.20656C12.2267 6.20622 12.213 6.21066 12.202 6.21915C12.191 6.22763 12.1833 6.23964 12.1802 6.25312L9.93756 11.7733C9.93498 11.781 9.93422 11.7892 9.9353 11.7972C9.93639 11.8052 9.93934 11.8129 9.94387 11.8196C9.9484 11.8264 9.95444 11.832 9.96149 11.836C9.96855 11.8401 9.97642 11.8426 9.98456 11.8432H11.304C11.3117 11.8439 11.3192 11.8462 11.326 11.8501C11.3327 11.854 11.3385 11.8593 11.343 11.8656C11.3475 11.872 11.3505 11.8792 11.3519 11.8868C11.3532 11.8944 11.3529 11.9022 11.351 11.9097L9.88723 16.6816C9.88329 16.6941 9.88409 16.7075 9.88949 16.7194C9.89488 16.7313 9.90449 16.7408 9.91649 16.7461C9.9285 16.7515 9.94206 16.7522 9.95461 16.7483C9.96716 16.7444 9.97781 16.7361 9.98456 16.7249L16.0275 9.94766C16.0544 9.91108 16.0342 9.85787 15.9906 9.85787Z" fill="#329A6B"/>
</svg>
